<svg viewBox="0 0 60 60" fill="none" xmlns="http://www.w3.org/2000/svg" xmlns:xlink="http://www.w3.org/1999/xlink" x="0" y="0"><g id="Component 82_3">
<path id="Vector_21" d="M16.062,1.68c0.599,0.14 0.83,0.53 1.164,1.02c1.321,1.6 2.836,2.53 4.922,2.81c0.638,0.05 1.211,0 1.838,-0.13c0.532,-0.1 0.92,-0.14 1.443,0.01c0.239,0.21 0.34,0.38 0.382,0.7c0.011,0.29 0.009,0.58 0.004,0.87c0,0.1 -0.001,0.21 -0.001,0.32c-0.002,0.34 -0.007,0.67 -0.011,1.01c-0.002,0.23 -0.004,0.46 -0.005,0.69c-0.004,0.56 -0.01,1.12 -0.017,1.68c1.005,0 2.011,0 3.047,0c-0.003,-0.24 -0.006,-0.49 -0.01,-0.75c-0.009,-0.82 -0.016,-1.65 -0.021,-2.47c-0.003,-0.5 -0.007,-1 -0.014,-1.5c-0.006,-0.48 -0.009,-0.96 -0.011,-1.44c-0.001,-0.19 -0.003,-0.37 -0.006,-0.55c-0.005,-0.26 -0.005,-0.52 -0.005,-0.78c-0.001,-0.14 -0.002,-0.29 -0.004,-0.44c0.092,-0.5 0.247,-0.67 0.657,-0.97c0.355,-0.08 0.355,-0.08 0.756,-0.08c0.226,0 0.226,0 0.456,0c0.164,0 0.327,0 0.491,0c0.168,0 0.337,0 0.505,0c0.353,0 0.705,0 1.058,0c0.451,0 0.902,0 1.354,0c0.347,0 0.695,0 1.043,0c0.166,0 0.333,0 0.499,0c0.233,0 0.466,0 0.698,0c0.133,0 0.265,0 0.401,0c0.482,0.1 0.652,0.27 0.942,0.66c0.07,0.39 0.07,0.39 0.066,0.83c0,0.09 0,0.17 0.001,0.25c-0.001,0.27 -0.005,0.53 -0.01,0.8c-0.001,0.19 -0.002,0.37 -0.003,0.56c-0.002,0.49 -0.008,0.97 -0.014,1.46c-0.006,0.5 -0.009,1 -0.012,1.5c-0.006,0.97 -0.016,1.95 -0.028,2.92c0.094,0 0.189,0 0.286,0c0.889,-0.01 1.779,-0.02 2.669,-0.02c0.457,0 0.915,-0.01 1.372,-0.01c0.442,-0.01 0.883,-0.01 1.325,-0.01c0.168,0 0.336,0 0.505,-0.01c0.236,0 0.472,0 0.707,0c0.135,0 0.269,0 0.407,0c0.346,0.05 0.346,0.05 0.624,0.23c0.275,0.42 0.252,0.82 0.244,1.31c0,0.11 0,0.21 0,0.32c0,0.34 -0.004,0.68 -0.008,1.02c0,0.23 -0.001,0.47 -0.002,0.7c-0.001,0.62 -0.006,1.24 -0.011,1.86c-0.005,0.64 -0.007,1.27 -0.009,1.9c-0.005,1.25 -0.013,2.49 -0.023,3.73c0.09,0 0.179,0 0.272,0c0.407,-0.01 0.815,-0.01 1.222,-0.01c0.141,-0.01 0.283,-0.01 0.428,-0.01c0.136,0 0.272,0 0.412,0c0.125,0 0.251,-0.01 0.38,-0.01c0.34,0.03 0.524,0.07 0.801,0.26c0.305,0.41 0.266,0.87 0.261,1.35c0,0.09 0,0.18 0,0.27c0,0.29 -0.002,0.58 -0.003,0.87c-0.001,0.2 -0.001,0.41 -0.001,0.61c-0.001,0.53 -0.004,1.06 -0.006,1.59c-0.003,0.54 -0.004,1.08 -0.005,1.62c-0.002,1.06 -0.006,2.12 -0.011,3.19c0.075,0.02 0.15,0.04 0.228,0.06c0.891,0.27 1.754,0.58 2.621,0.92c0.148,0.05 0.295,0.11 0.443,0.16c0.141,0.06 0.282,0.11 0.427,0.17c0.127,0.05 0.254,0.1 0.385,0.15c0.402,0.2 0.653,0.41 0.935,0.76c0.043,0.3 0.043,0.3 -0.001,0.6c-0.024,0.17 -0.024,0.17 -0.049,0.34c-0.109,0.56 -0.242,1.11 -0.404,1.66c-0.036,0.12 -0.072,0.24 -0.108,0.36c-1.058,3.43 -2.828,6.41 -5.298,9c-0.143,0.15 -0.143,0.15 -0.288,0.3c-3.18,3.3 -8.154,5.6 -12.753,5.69c-0.234,0 -0.468,0.01 -0.701,0.01c-0.126,0 -0.252,0 -0.382,0c-0.267,0 -0.533,0 -0.799,0c-0.401,0 -0.801,0.01 -1.201,0.01c-1.962,0.01 -3.844,-0.14 -5.731,-0.7c-0.101,-0.03 -0.202,-0.06 -0.306,-0.09c-3.11,-0.95 -5.934,-2.55 -8.257,-4.83c-0.158,-0.15 -0.319,-0.3 -0.481,-0.45c-3.043,-2.93 -5.281,-7.45 -5.832,-11.63c0.082,-0.42 0.317,-0.58 0.638,-0.85c0.324,-0.17 0.661,-0.3 1.005,-0.42c0.096,-0.03 0.191,-0.07 0.289,-0.11c0.303,-0.11 0.607,-0.22 0.91,-0.33c0.206,-0.08 0.413,-0.15 0.619,-0.23c0.503,-0.19 1.008,-0.37 1.513,-0.55c0.038,-1.32 0.077,-2.63 0.117,-3.99c-0.31,0.12 -0.619,0.23 -0.938,0.35c-1.472,0.23 -3.315,-1.08 -4.492,-1.9c-0.773,-0.57 -1.492,-1.19 -2.187,-1.85c-0.103,-0.09 -0.205,-0.19 -0.31,-0.28c-1.278,-1.23 -3.451,-3.48 -3.573,-5.35c-0.001,-0.09 -0.001,-0.18 -0.002,-0.28c-0.001,-0.16 -0.001,-0.16 -0.002,-0.32c-0.001,-0.11 -0.001,-0.23 -0.001,-0.35c-0.001,-0.12 -0.002,-0.24 -0.003,-0.37c-0.002,-0.41 -0.003,-0.81 -0.005,-1.22c0,-0.14 -0.001,-0.28 -0.001,-0.42c-0.002,-0.73 -0.004,-1.47 -0.005,-2.2c-0.002,-0.76 -0.006,-1.51 -0.01,-2.27c-0.003,-0.59 -0.004,-1.17 -0.005,-1.75c0,-0.28 -0.002,-0.56 -0.004,-0.84c-0.003,-0.39 -0.003,-0.78 -0.002,-1.17c-0.002,-0.17 -0.002,-0.17 -0.004,-0.35c0.004,-0.51 0.013,-0.8 0.28,-1.24c0.301,-0.27 0.43,-0.29 0.827,-0.26c0.097,0 0.195,0 0.296,0.01c0.297,0.03 0.297,0.03 0.579,0.09c1.843,0.35 3.663,-0.18 5.19,-1.21c0.839,-0.63 1.446,-1.41 2.057,-2.26c0.458,-0.31 0.839,-0.32 1.385,-0.3zM30.703,3.63c0,2.32 0,4.64 0,7.03c1.663,0 3.325,0 5.039,0c0,-2.32 0,-4.64 0,-7.03c-1.663,0 -3.326,0 -5.039,0zM15.586,3.98c-0.046,0.06 -0.092,0.12 -0.139,0.17c-1.502,1.78 -3.279,2.9 -5.604,3.23c-0.43,0.04 -0.86,0.06 -1.291,0.07c-0.113,0.01 -0.226,0.01 -0.342,0.02c-0.276,0.01 -0.552,0.02 -0.828,0.03c-0.024,1.36 -0.043,2.72 -0.054,4.08c-0.006,0.63 -0.013,1.26 -0.025,1.9c-0.012,0.61 -0.018,1.22 -0.021,1.83c-0.002,0.23 -0.005,0.46 -0.011,0.69c-0.038,1.62 0.19,2.63 1.166,3.92c0.091,0.13 0.181,0.26 0.271,0.39c1.47,2.08 4.149,4.91 6.76,5.47c0.574,-0.04 1.027,-0.25 1.524,-0.52c0.076,-0.04 0.152,-0.08 0.231,-0.12c2.328,-1.3 4.437,-3.19 5.843,-5.47c0.137,-0.22 0.137,-0.22 0.313,-0.45c0.729,-1.1 0.616,-2.25 0.595,-3.51c-0.001,-0.24 -0.002,-0.48 -0.003,-0.72c-0.002,-0.62 -0.009,-1.24 -0.017,-1.86c-0.007,-0.63 -0.01,-1.27 -0.014,-1.9c-0.007,-1.24 -0.019,-2.49 -0.034,-3.73c-0.079,0 -0.158,0 -0.239,0c-0.105,0 -0.209,0 -0.317,0c-0.103,0 -0.206,0 -0.312,0c-3.116,-0.03 -5.31,-1.36 -7.452,-3.52zM25.781,12.54c-0.039,2.05 -0.078,4.1 -0.117,6.21c-1.042,1.95 -1.042,1.95 -1.52,2.63c-0.132,0.16 -0.132,0.16 -0.121,0.3c6.536,0 13.071,0 19.805,0c0,-3.02 0,-6.03 0,-9.14c-5.956,0 -11.911,0 -18.047,0zM21.093,24.73c-0.162,0.13 -0.327,0.26 -0.498,0.38c-0.073,0.06 -0.147,0.11 -0.223,0.17c-0.071,0.05 -0.143,0.1 -0.216,0.15c-0.075,0.05 -0.15,0.11 -0.228,0.16c-0.311,0.23 -0.625,0.45 -0.944,0.66c-0.031,0.33 -0.041,0.64 -0.034,0.97c0,0.1 0.001,0.19 0.001,0.29c0.002,0.31 0.006,0.62 0.011,0.92c0.002,0.21 0.003,0.42 0.005,0.63c0.004,0.51 0.01,1.02 0.017,1.53c0.733,-0.24 1.454,-0.5 2.173,-0.78c0.106,-0.04 0.212,-0.08 0.322,-0.12c0.347,-0.13 0.695,-0.27 1.043,-0.4c0.119,-0.05 0.239,-0.09 0.362,-0.14c2.088,-0.8 4.17,-1.61 6.251,-2.43c0.507,-0.2 1.014,-0.4 1.522,-0.59c0.274,-0.11 0.548,-0.22 0.821,-0.33c0.167,-0.07 0.333,-0.13 0.5,-0.2c0.142,-0.05 0.284,-0.11 0.431,-0.17c0.833,-0.25 1.435,-0.08 2.211,0.23c0.095,0.03 0.19,0.07 0.288,0.11c0.313,0.12 0.624,0.24 0.936,0.36c0.22,0.09 0.441,0.17 0.661,0.26c0.571,0.22 1.142,0.44 1.713,0.67c0.427,0.16 0.855,0.33 1.283,0.5c0.703,0.27 1.406,0.54 2.109,0.82c1.343,0.53 2.687,1.05 4.034,1.56c0.087,0.03 0.174,0.07 0.263,0.1c0.241,0.09 0.481,0.19 0.722,0.28c0.136,0.05 0.272,0.1 0.412,0.16c0.267,0.11 0.267,0.11 0.419,0.11c0,-2.32 0,-4.64 0,-7.04c-3.247,-0.02 -6.494,-0.04 -9.742,-0.06c-1.508,0 -3.016,-0.01 -4.524,-0.02c-1.314,-0.02 -2.629,-0.02 -3.943,-0.03c-0.696,0 -1.392,0 -2.088,-0.01c-0.656,-0.01 -1.311,-0.01 -1.966,-0.01c-0.241,0 -0.481,0 -0.721,-0.01c-1.559,-0.02 -2.338,0.08 -3.383,1.32zM32.438,27.36c-0.097,0.04 -0.194,0.08 -0.294,0.12c-0.105,0.04 -0.21,0.08 -0.318,0.13c-0.111,0.04 -0.221,0.09 -0.336,0.13c-0.239,0.1 -0.479,0.2 -0.718,0.29c-0.641,0.26 -1.282,0.52 -1.924,0.77c-0.13,0.05 -0.261,0.11 -0.395,0.16c-1.216,0.48 -2.437,0.95 -3.661,1.41c-2.321,0.88 -4.633,1.78 -6.944,2.69c-0.349,0.13 -0.698,0.27 -1.047,0.41c-0.312,0.12 -0.623,0.24 -0.934,0.36c-0.21,0.09 -0.419,0.17 -0.628,0.25c-0.122,0.05 -0.245,0.1 -0.371,0.15c-0.158,0.06 -0.158,0.06 -0.32,0.12c-0.252,0.1 -0.252,0.1 -0.486,0.22c0.14,0.79 0.332,1.54 0.601,2.3c0.035,0.1 0.071,0.2 0.108,0.31c0.353,0.97 0.784,1.88 1.283,2.78c0.041,0.08 0.082,0.15 0.124,0.23c1.186,2.12 2.748,4.02 4.681,5.51c0.106,0.09 0.211,0.17 0.32,0.26c1.49,1.18 3.169,2.04 4.953,2.67c0.141,0.05 0.282,0.11 0.427,0.16c4.232,1.48 9.559,1.41 13.753,-0.16c0.08,-0.03 0.16,-0.06 0.242,-0.09c4.632,-1.73 8.3,-5.17 10.422,-9.63c0.621,-1.41 1.084,-2.84 1.406,-4.34c-2.494,-1.01 -5.006,-1.98 -7.517,-2.95c-1.004,-0.39 -2.007,-0.78 -3.009,-1.17c-0.952,-0.37 -1.905,-0.74 -2.857,-1.11c-0.686,-0.26 -1.372,-0.53 -2.057,-0.8c-0.429,-0.16 -0.858,-0.33 -1.286,-0.5c-0.2,-0.07 -0.399,-0.15 -0.598,-0.23c-0.272,-0.11 -0.544,-0.21 -0.816,-0.32c-0.08,-0.03 -0.159,-0.06 -0.241,-0.09c-0.578,-0.22 -0.987,-0.27 -1.563,-0.04z" fill="currentColor"/>
<path id="Vector_22" d="M52.265,52.38c0.657,0 1.315,0 1.992,0c-0.164,1.51 -0.387,2.69 -1.406,3.87c-0.065,0.08 -0.129,0.16 -0.196,0.24c-0.931,1.03 -2.333,1.68 -3.713,1.78c-1.715,0.06 -3.089,-0.44 -4.441,-1.48c-0.397,-0.38 -0.711,-0.79 -1.025,-1.24c-0.087,0.11 -0.087,0.11 -0.176,0.23c-1.097,1.32 -2.331,2.18 -4.043,2.46c-1.609,0.11 -3.136,-0.16 -4.419,-1.19c-0.456,-0.41 -0.892,-0.83 -1.323,-1.27c-0.05,0.06 -0.099,0.12 -0.151,0.18c-1.037,1.22 -2.192,2.09 -3.833,2.28c-1.812,0.15 -3.284,-0.35 -4.717,-1.45c-0.398,-0.38 -0.711,-0.79 -1.025,-1.24c-0.058,0.07 -0.117,0.15 -0.176,0.23c-1.038,1.25 -2.277,2.22 -3.926,2.46c-1.827,0.15 -3.394,-0.23 -4.848,-1.39c-0.98,-0.89 -1.756,-2.27 -1.855,-3.61c0.008,-0.24 0.016,-0.49 0.023,-0.74c0.619,0 1.238,0 1.875,0c0.044,0.21 0.087,0.42 0.132,0.63c0.269,1.06 0.705,1.89 1.624,2.51c0.901,0.53 1.841,0.77 2.876,0.55c1.163,-0.32 1.99,-0.97 2.618,-2c0.254,-0.54 0.359,-1.11 0.485,-1.69c0.773,0 1.547,0 2.343,0c0.027,0.19 0.054,0.38 0.081,0.58c0.226,1.21 0.806,1.98 1.794,2.7c0.845,0.49 1.839,0.62 2.783,0.39c1.064,-0.36 1.858,-0.88 2.461,-1.84c0.277,-0.58 0.378,-1.19 0.499,-1.83c0.657,0 1.314,0 1.992,0c0.043,0.21 0.087,0.42 0.132,0.63c0.268,1.06 0.705,1.89 1.624,2.51c0.9,0.53 1.84,0.77 2.876,0.55c1.163,-0.32 1.99,-0.97 2.617,-2c0.255,-0.54 0.36,-1.11 0.485,-1.69c0.774,0 1.547,0 2.344,0c0.026,0.17 0.053,0.34 0.08,0.51c0.233,1.14 0.706,2 1.678,2.65c0.985,0.54 1.925,0.75 3.032,0.46c1.004,-0.33 1.723,-0.87 2.307,-1.75c0.31,-0.64 0.404,-1.29 0.52,-1.99z" fill="currentColor"/>
<path id="Vector_23" d="M20.391,10.2c0.388,0.18 0.664,0.38 0.974,0.68c0.084,0.08 0.168,0.16 0.255,0.24c0.177,0.25 0.177,0.25 0.155,0.47c-0.119,0.31 -0.275,0.47 -0.51,0.7c-0.085,0.08 -0.17,0.17 -0.258,0.26c-0.09,0.08 -0.18,0.17 -0.272,0.26c-0.087,0.09 -0.173,0.17 -0.263,0.26c-0.393,0.39 -0.791,0.76 -1.21,1.12c-0.604,0.53 -1.166,1.1 -1.731,1.67c-0.115,0.11 -0.229,0.23 -0.343,0.34c-0.298,0.3 -0.595,0.6 -0.893,0.9c-0.304,0.3 -0.609,0.61 -0.914,0.91c-0.596,0.6 -1.192,1.2 -1.787,1.79c-0.447,-0.21 -0.817,-0.49 -1.201,-0.79c-0.071,-0.06 -0.141,-0.11 -0.213,-0.17c-0.863,-0.69 -1.717,-1.38 -2.571,-2.08c0.155,-0.45 0.342,-0.75 0.66,-1.09c0.074,-0.09 0.148,-0.17 0.224,-0.25c0.085,-0.09 0.085,-0.09 0.171,-0.19c0.559,0.18 0.924,0.5 1.355,0.88c0.132,0.11 0.264,0.23 0.396,0.34c0.062,0.05 0.123,0.11 0.186,0.16c0.207,0.18 0.421,0.34 0.641,0.5c0.471,-0.19 0.786,-0.52 1.135,-0.87c0.066,-0.07 0.131,-0.14 0.198,-0.2c0.215,-0.22 0.429,-0.43 0.643,-0.65c0.149,-0.15 0.298,-0.3 0.447,-0.45c0.392,-0.39 0.783,-0.78 1.175,-1.18c0.399,-0.4 0.799,-0.8 1.199,-1.2c0.785,-0.79 1.568,-1.58 2.352,-2.36z" fill="currentColor"/>
</g></svg>