<svg viewBox="0 0 60 60" fill="none" xmlns="http://www.w3.org/2000/svg" xmlns:xlink="http://www.w3.org/1999/xlink" x="0" y="0"><g id="Component 82_2">
<path id="Vector_17" d="M32.462,34.1c0.118,0.03 0.237,0.05 0.359,0.07c3.195,0.67 7.049,1.77 9.513,4.04c0.404,0.28 0.691,0.31 1.181,0.36c0.082,0.01 0.164,0.02 0.248,0.03c0.172,0.01 0.343,0.03 0.515,0.05c0.393,0.04 0.784,0.08 1.176,0.13c0.153,0.01 0.305,0.03 0.463,0.05c9.865,1.13 9.865,1.13 12.608,4.39c0.538,0.74 0.668,1.51 0.676,2.41c0.001,0.15 0.003,0.29 0.005,0.45c0.001,0.16 0.001,0.32 0.002,0.48c0.001,0.08 0.001,0.16 0.002,0.25c0.002,0.43 0.004,0.86 0.005,1.29c0.001,0.44 0.005,0.89 0.01,1.33c0.003,0.34 0.004,0.69 0.004,1.03c0.001,0.16 0.002,0.33 0.004,0.49c0.003,0.23 0.003,0.46 0.002,0.69c0.001,0.19 0.001,0.19 0.002,0.39c-0.07,0.43 -0.224,0.63 -0.525,0.94c-0.276,0.14 -0.449,0.13 -0.756,0.14c-0.108,0 -0.216,0 -0.327,0.01c-0.175,0 -0.175,0 -0.354,0c-0.179,0.01 -0.179,0.01 -0.362,0.01c-0.382,0.01 -0.764,0.01 -1.146,0.02c-0.258,0.01 -0.517,0.01 -0.776,0.02c-0.635,0.01 -1.27,0.02 -1.904,0.03c-0.046,0.14 -0.046,0.14 -0.092,0.29c-0.061,0.19 -0.061,0.19 -0.123,0.38c-0.04,0.12 -0.08,0.25 -0.121,0.37c-0.634,1.75 -1.906,2.87 -3.532,3.65c-1.641,0.7 -3.413,0.6 -5.063,-0.03c-1.614,-0.74 -2.763,-2.02 -3.498,-3.62c-0.14,-0.42 -0.176,-0.83 -0.228,-1.27c-0.114,0 -0.227,0 -0.345,0c-1.459,0 -2.919,0 -4.379,0.01c-0.116,0 -0.233,0 -0.353,0c-4.051,0 -8.099,-0.04 -12.149,-0.13c-0.007,0.07 -0.014,0.14 -0.021,0.22c-0.014,0.14 -0.014,0.14 -0.028,0.28c-0.009,0.1 -0.018,0.19 -0.028,0.28c-0.213,1.43 -1.369,2.65 -2.421,3.54c-1.356,1 -3.045,1.35 -4.701,1.16c-1.626,-0.28 -3.16,-1.1 -4.212,-2.38c-0.635,-0.94 -1.246,-2.07 -1.246,-3.22c-0.073,0.01 -0.147,0.02 -0.223,0.03c-5.804,0.52 -5.804,0.52 -7.35,-0.69c-0.305,-0.27 -0.581,-0.55 -0.849,-0.85c-0.064,-0.07 -0.128,-0.14 -0.194,-0.22c-1.078,-1.25 -1.156,-2.2 -1.04,-3.82c0.013,-0.17 0.026,-0.34 0.038,-0.51c0.013,-0.18 0.026,-0.35 0.039,-0.53c0.026,-0.37 0.054,-0.74 0.082,-1.11c0.035,-0.48 0.069,-0.95 0.102,-1.42c0.026,-0.37 0.053,-0.74 0.08,-1.1c0.013,-0.18 0.026,-0.35 0.038,-0.53c0.017,-0.24 0.036,-0.49 0.055,-0.73c0.01,-0.14 0.02,-0.28 0.031,-0.42c0.064,-0.5 0.15,-1.01 0.424,-1.44c0.333,-0.21 0.652,-0.22 1.039,-0.26c0.082,-0.01 0.164,-0.01 0.248,-0.02c0.262,-0.03 0.524,-0.06 0.786,-0.09c1.806,-0.18 3.369,-0.44 5.003,-1.29c3.296,-1.65 6.813,-2.61 10.42,-3.29c0.213,-0.04 0.213,-0.04 0.43,-0.08c0.19,-0.04 0.19,-0.04 0.384,-0.08c0.298,-0.05 0.298,-0.05 0.536,-0.18c3.765,-0.62 8.089,-0.76 11.836,0zM23.702,35.73c-0.106,0.01 -0.212,0.02 -0.321,0.03c-0.591,0.05 -0.591,0.05 -1.115,0.33c0.49,1.77 0.49,1.77 1.67,3.04c0.261,0.09 0.525,0.17 0.791,0.25c0.194,0.06 0.387,0.13 0.58,0.2c4.725,1.7 9.955,1.61 14.655,-0.2c0.077,-0.08 0.154,-0.16 0.234,-0.24c-3.921,-2.53 -8.485,-3.54 -13.11,-3.54c-0.079,0 -0.157,0 -0.238,0c-1.052,0 -2.098,0.03 -3.146,0.13zM18.26,36.62c-0.209,0.05 -0.209,0.05 -0.422,0.1c-2.79,0.64 -5.502,1.49 -8.088,2.73c-1.816,0.87 -3.441,1.33 -5.443,1.48c-0.482,0.03 -0.482,0.03 -0.908,0.25c-0.148,0.2 -0.148,0.2 -0.117,0.54c0.069,0.02 0.138,0.03 0.209,0.05c0.319,0.08 0.637,0.17 0.955,0.26c0.109,0.02 0.217,0.05 0.329,0.08c0.9,0.25 1.816,0.6 2.315,1.44c0.362,0.81 0.442,1.68 0.154,2.54c-0.302,0.7 -0.862,1.1 -1.501,1.49c-0.907,0.3 -1.91,0.12 -2.813,-0.12c-0.163,0.67 -0.186,1.17 0.165,1.77c0.592,0.79 1.253,1.49 2.252,1.69c1.717,0.2 3.482,0.07 5.2,-0.06c0.047,-0.13 0.093,-0.26 0.141,-0.39c0.062,-0.17 0.125,-0.34 0.187,-0.5c0.046,-0.13 0.046,-0.13 0.092,-0.26c0.62,-1.67 1.682,-2.88 3.315,-3.63c1.749,-0.68 3.521,-0.71 5.248,0.04c1.623,0.77 2.585,1.83 3.321,3.46c0.158,0.46 0.249,0.93 0.353,1.4c0.889,0 1.779,0 2.695,0c-0.829,-2.3 -1.689,-4.58 -2.556,-6.87c-0.028,-0.07 -0.056,-0.14 -0.085,-0.22c-0.251,-0.66 -0.502,-1.32 -0.754,-1.98c-0.486,-1.28 -0.97,-2.56 -1.454,-3.84c-0.069,-0.18 -0.138,-0.36 -0.206,-0.55c-0.151,-0.39 -0.302,-0.79 -0.453,-1.19c-0.743,-0.02 -1.409,0.13 -2.131,0.29zM40.503,41.1c-0.309,0.11 -0.619,0.21 -0.93,0.32c-0.115,0.04 -0.115,0.04 -0.232,0.08c-1.1,0.37 -2.223,0.61 -3.364,0.8c-0.08,0.02 -0.161,0.03 -0.243,0.05c-3.882,0.71 -7.76,0.03 -11.476,-1.1c0.818,2.26 1.663,4.51 2.522,6.75c0.039,0.1 0.078,0.21 0.118,0.31c0.073,0.19 0.146,0.38 0.218,0.57c0.267,0.7 0.52,1.4 0.775,2.1c4.138,0 8.276,0 12.539,0c0.116,-0.47 0.232,-0.93 0.352,-1.41c0.197,-0.45 0.197,-0.45 0.403,-0.82c0.067,-0.12 0.135,-0.25 0.204,-0.37c0.202,-0.32 0.419,-0.54 0.682,-0.8c0,-0.08 0,-0.16 0,-0.24c0.069,-0.03 0.138,-0.06 0.209,-0.09c0.254,-0.14 0.449,-0.29 0.67,-0.47c1.311,-1 2.899,-1.31 4.512,-1.19c1.681,0.23 3.091,0.94 4.218,2.22c0.761,1.02 1.049,2.03 1.407,3.28c1.353,0 2.707,0 4.101,0c0,-1.66 0,-3.32 0,-5.04c-0.673,-0.19 -0.673,-0.19 -1.341,-0.31c-0.09,-0.01 -0.18,-0.02 -0.273,-0.04c-0.184,-0.02 -0.369,-0.04 -0.554,-0.07c-0.842,-0.12 -1.17,-0.51 -1.679,-1.17c-0.117,-0.16 -0.234,-0.31 -0.35,-0.47c-0.063,-0.08 -0.126,-0.17 -0.191,-0.25c-0.277,-0.37 -0.523,-0.71 -0.735,-1.12c-0.253,-0.47 -0.482,-0.8 -0.994,-1c-0.835,-0.25 -1.694,-0.37 -2.555,-0.49c-0.149,-0.02 -0.299,-0.04 -0.453,-0.06c-1.019,-0.15 -2.039,-0.29 -3.062,-0.41c-0.112,-0.01 -0.223,-0.02 -0.337,-0.03c-0.317,-0.04 -0.634,-0.06 -0.952,-0.08c-0.178,-0.02 -0.178,-0.02 -0.36,-0.03c-1.044,-0.04 -1.876,0.22 -2.849,0.58zM54.61,42.89c0.337,0.54 0.337,0.54 0.82,0.94c0.24,0.05 0.24,0.05 0.491,0.07c0.147,0.02 0.295,0.03 0.447,0.05c-0.445,-0.5 -0.899,-0.81 -1.524,-1.06c-0.077,0 -0.154,0 -0.234,0zM3.165,43.71c-0.058,0.87 -0.058,0.87 -0.118,1.76c1.028,0.42 1.028,0.42 2.081,0.34c0.339,-0.29 0.427,-0.49 0.498,-0.93c-0.085,-0.33 -0.085,-0.33 -0.352,-0.58c-0.68,-0.33 -1.371,-0.46 -2.109,-0.59zM13.448,49.03c-0.851,1.05 -1.155,2.25 -1.026,3.59c0.279,1.33 0.962,2.31 2.059,3.1c1.053,0.65 2.109,0.78 3.332,0.65c0.427,-0.11 0.788,-0.26 1.172,-0.47c0.09,-0.05 0.18,-0.1 0.273,-0.14c0.944,-0.56 1.688,-1.51 2.017,-2.56c0.291,-1.27 0.151,-2.43 -0.476,-3.59c-0.644,-1.02 -1.505,-1.74 -2.672,-2.09c-1.84,-0.35 -3.424,0.13 -4.679,1.51zM43.36,48.87c-0.964,1.26 -1.199,2.43 -1.055,3.98c0.228,1.13 0.853,2.07 1.795,2.73c0.18,0.11 0.364,0.22 0.549,0.32c0.088,0.05 0.176,0.1 0.266,0.15c1.045,0.49 2.26,0.49 3.352,0.13c1.155,-0.49 2.096,-1.35 2.63,-2.49c0.459,-1.23 0.451,-2.33 -0.007,-3.56c-0.521,-1.14 -1.447,-1.99 -2.599,-2.47c-1.785,-0.62 -3.626,-0.13 -4.931,1.21z" fill="currentColor"/>
<path id="Vector_18" d="M41.485,4.69c0.077,0.04 0.155,0.08 0.235,0.12c1.761,0.94 3.311,2.07 4.804,3.39c0.063,0.06 0.126,0.11 0.191,0.17c2.076,1.82 3.725,4 5.082,6.4c0.04,0.07 0.08,0.13 0.121,0.21c1.885,3.28 3.497,7.9 3.043,11.74c-0.242,0.39 -0.242,0.39 -0.586,0.58c-0.41,0.08 -0.41,0.08 -0.82,0c-0.482,-0.4 -0.724,-0.81 -0.982,-1.38c-0.73,-1.53 -1.837,-2.39 -3.424,-2.98c-2.36,-0.76 -4.968,-0.59 -7.196,0.5c-1.46,0.83 -2.233,1.97 -2.812,3.51c-0.084,0.21 -0.169,0.41 -0.256,0.61c-0.054,0.13 -0.054,0.13 -0.108,0.26c-0.105,0.19 -0.105,0.19 -0.339,0.3c-0.259,0.04 -0.259,0.04 -0.564,0.05c-0.15,0.01 -0.15,0.01 -0.303,0.02c-0.447,-0.09 -0.609,-0.3 -0.891,-0.65c-0.157,-0.38 -0.157,-0.38 -0.278,-0.78c-0.527,-1.57 -1.512,-2.67 -2.981,-3.42c-0.726,-0.35 -1.456,-0.58 -2.249,-0.72c-0.124,-0.03 -0.124,-0.03 -0.25,-0.05c-2.142,-0.32 -4.455,0.11 -6.25,1.34c-1.184,0.93 -1.752,2.07 -2.252,3.47c-0.145,0.37 -0.204,0.51 -0.506,0.74c-0.27,0.09 -0.27,0.09 -0.571,0.12c-0.099,0.02 -0.198,0.03 -0.299,0.05c-0.457,-0.07 -0.605,-0.28 -0.888,-0.63c-0.129,-0.31 -0.237,-0.6 -0.336,-0.91c-0.277,-0.8 -0.593,-1.41 -1.187,-2.02c-0.077,-0.08 -0.154,-0.17 -0.233,-0.25c-1.493,-1.45 -3.626,-1.89 -5.645,-1.89c-1.725,0.02 -3.479,0.4 -4.83,1.52c-0.19,0.15 -0.19,0.15 -0.542,0.26c-0.125,0.22 -0.125,0.22 -0.234,0.47c-0.108,0.17 -0.218,0.33 -0.33,0.49c-0.329,0.48 -0.587,0.98 -0.833,1.51c-0.126,0.23 -0.126,0.23 -0.361,0.35c-0.823,0.08 -0.823,0.08 -1.23,-0.21c-1.022,-2.21 0.471,-6.36 1.245,-8.52c0.83,-2.19 1.882,-4.26 3.266,-6.16c0.051,-0.07 0.101,-0.14 0.153,-0.21c0.687,-0.95 1.449,-1.81 2.258,-2.66c0.154,-0.16 0.307,-0.32 0.46,-0.48c0.718,-0.75 1.501,-1.38 2.326,-2.01c0.173,-0.13 0.344,-0.26 0.515,-0.39c7.605,-5.75 18.539,-6.39 26.867,-1.86zM26.836,5.39c-0.348,0.49 -0.647,1 -0.937,1.52c-0.067,0.12 -0.134,0.24 -0.204,0.36c-2.437,4.57 -3.685,10.97 -3.546,16.17c0.152,-0.14 0.152,-0.14 0.307,-0.29c2.482,-2.11 5.295,-2.67 8.482,-2.53c2.379,0.2 4.214,1.28 5.976,2.82c-0.135,-6.02 -1.007,-13.97 -5.207,-18.6c-0.787,-0.71 -1.369,-1.14 -2.455,-1.12c-1.052,0.1 -1.764,0.9 -2.416,1.67zM33.75,4.1c0.143,0.39 0.3,0.7 0.542,1.03c3.44,5.09 4.029,12.01 4.497,17.96c0.447,0 0.515,-0.12 0.843,-0.41c2.311,-1.9 5.32,-2.3 8.222,-2.03c1.623,0.22 3.071,0.81 4.412,1.73c0.077,0.04 0.155,0.08 0.234,0.12c-0.063,-0.74 -0.193,-1.4 -0.425,-2.11c-0.031,-0.1 -0.062,-0.19 -0.094,-0.29c-1.852,-5.6 -5.594,-10.37 -10.731,-13.3c-0.078,-0.05 -0.155,-0.09 -0.236,-0.14c-2.064,-1.19 -4.831,-2.56 -7.264,-2.56zM18.716,6.34c-0.176,0.09 -0.354,0.18 -0.533,0.27c-5.157,2.65 -9.107,7.69 -10.9,13.13c-0.276,0.88 -0.511,1.72 -0.603,2.64c0.42,-0.15 0.804,-0.35 1.196,-0.56c2.466,-1.32 5.658,-1.57 8.337,-0.76c1.588,0.55 2.782,1.31 4.061,2.38c0.008,-0.11 0.016,-0.22 0.025,-0.33c0.495,-6.37 1.204,-13.69 5.131,-19.01c-2.266,0 -4.748,1.19 -6.714,2.24z" fill="currentColor"/>
<path id="Vector_19" d="M48.809,49.18c0.78,0.66 1.266,1.39 1.376,2.41c0.029,0.96 -0.219,1.76 -0.805,2.53c-0.651,0.69 -1.514,1.04 -2.453,1.08c-0.953,-0.02 -1.668,-0.32 -2.395,-0.94c-0.75,-0.81 -0.875,-1.68 -0.858,-2.76c0.079,-0.87 0.464,-1.56 1.092,-2.16c1.275,-0.78 2.739,-1.04 4.043,-0.16zM45.821,51.09c-0.266,0.33 -0.234,0.5 -0.227,0.93c0.077,0.51 0.298,0.75 0.696,1.07c0.415,0.2 0.852,0.12 1.289,0c0.343,-0.29 0.535,-0.5 0.641,-0.94c0.035,-0.46 -0.041,-0.74 -0.334,-1.11c-0.356,-0.35 -0.433,-0.4 -0.923,-0.45c-0.519,0.04 -0.746,0.17 -1.142,0.5z" fill="currentColor"/>
<path id="Vector_20" d="M18.809,49.18c0.78,0.66 1.266,1.39 1.376,2.41c0.029,0.96 -0.219,1.76 -0.805,2.53c-0.651,0.69 -1.514,1.04 -2.453,1.08c-0.953,-0.02 -1.668,-0.32 -2.395,-0.94c-0.75,-0.81 -0.875,-1.68 -0.858,-2.76c0.079,-0.87 0.464,-1.56 1.092,-2.16c1.275,-0.78 2.739,-1.04 4.043,-0.16zM15.821,51.09c-0.266,0.33 -0.234,0.5 -0.227,0.93c0.077,0.51 0.298,0.75 0.696,1.07c0.415,0.2 0.852,0.12 1.289,0c0.343,-0.29 0.535,-0.5 0.641,-0.94c0.035,-0.46 -0.041,-0.74 -0.334,-1.11c-0.356,-0.35 -0.433,-0.4 -0.923,-0.45c-0.519,0.04 -0.746,0.17 -1.142,0.5z" fill="currentColor"/>
</g></svg>