<svg viewBox="0 0 58.9158 58.8281" fill="none" xmlns="http://www.w3.org/2000/svg" xmlns:xlink="http://www.w3.org/1999/xlink" x="0" y="0"><path id="Vector_12" d="M28.3971,0.0041c0.657,0 1.315,0 1.992,0c0,0.73 0,1.47 0,2.22c0.374,-0.01 0.374,-0.01 0.755,-0.02c6.82,-0.05 14.094,2.72 19.401,6.94c0.064,0.05 0.127,0.1 0.192,0.15c0.617,0.48 1.2,0.98 1.745,1.55c0.184,0.19 0.184,0.19 0.466,0.4c0.424,0.35 0.759,0.76 1.113,1.18c0.09,0.1 0.179,0.2 0.272,0.31c2.63,3.06 4.489,6.93 4.569,11.02c0.005,0.15 0.009,0.29 0.014,0.45c-0.059,0.47 -0.178,0.66 -0.519,0.99c-0.426,0.15 -0.614,0.16 -1.025,-0.03c-0.392,-0.3 -0.515,-0.56 -0.586,-1.04c-0.209,-0.98 -0.8,-1.68 -1.599,-2.25c-2.958,-1.85 -6.797,-2.08 -10.145,-1.37c-1.674,0.4 -3.673,1.06 -4.683,2.55c-0.232,0.49 -0.338,1.02 -0.456,1.54c-0.139,0.37 -0.139,0.37 -0.42,0.59c-0.42,0.18 -0.69,0.12 -1.125,0.01c-0.381,-0.28 -0.429,-0.58 -0.52,-1.03c-0.255,-1.08 -0.814,-1.73 -1.707,-2.37c-1.824,-1.07 -3.646,-1.38 -5.742,-1.64c0.039,1.55 0.078,3.1 0.117,4.69c0.387,0.19 0.774,0.39 1.172,0.59c0.283,0.23 0.53,0.45 0.783,0.7c0.07,0.07 0.14,0.14 0.212,0.21c0.232,0.23 0.461,0.47 0.691,0.7c0.166,0.16 0.333,0.33 0.5,0.5c0.451,0.44 0.9,0.89 1.349,1.35c0.471,0.47 0.943,0.94 1.415,1.41c0.792,0.79 1.583,1.58 2.373,2.38c0.912,0.91 1.827,1.83 2.742,2.74c0.883,0.88 1.763,1.76 2.643,2.65c0.374,0.37 0.749,0.75 1.124,1.12c0.441,0.44 0.881,0.88 1.321,1.32c0.161,0.17 0.323,0.33 0.485,0.49c0.221,0.22 0.441,0.44 0.661,0.66c0.064,0.07 0.128,0.13 0.194,0.19c0.886,0.91 1.13,1.86 1.118,3.1c-0.078,0.95 -0.497,1.75 -1.205,2.39c-0.928,0.71 -1.887,0.93 -3.046,0.82c-0.271,-0.08 -0.542,-0.15 -0.821,-0.23c-0.038,2.93 -0.077,5.87 -0.117,8.9c0.967,0 1.934,0 2.93,0c0,0.66 0,1.32 0,1.99c-11.602,0 -23.203,0 -35.156,0c0,-0.65 0,-1.31 0,-1.99c0.966,0 1.933,0 2.929,0c-0.038,-2.94 -0.077,-5.88 -0.117,-8.9c-0.193,0.07 -0.387,0.15 -0.586,0.23c-1.275,0.13 -2.309,-0.03 -3.318,-0.84c-0.666,-0.63 -1.088,-1.4 -1.163,-2.31c-0.028,-1.23 0.21,-2.1 1.024,-3.03c0.3,-0.27 0.598,-0.46 0.944,-0.66c1.32,-0.8 2.62,-1.83 3.099,-3.36c0.479,-2.21 0.288,-4.61 0.215,-6.85c-0.004,-0.12 -0.008,-0.24 -0.011,-0.35c-0.019,-0.56 -0.042,-1.11 -0.075,-1.66c-0.008,-0.16 -0.008,-0.16 -0.015,-0.31c-0.009,-0.19 -0.021,-0.37 -0.035,-0.56c-0.021,-0.46 0.019,-0.67 0.293,-1.04c0.363,-0.26 0.521,-0.31 0.96,-0.31c0.123,-0.01 0.246,-0.01 0.372,-0.01c0.132,0 0.263,0 0.399,0.01c0.203,-0.01 0.203,-0.01 0.411,-0.01c0.287,0 0.574,0.01 0.861,0.01c0.44,0 0.879,0 1.319,0c0.279,0 0.557,0 0.836,0c0.132,0 0.263,0 0.399,0c0.122,0 0.245,0 0.371,0.01c0.161,0 0.161,0 0.326,0c0.389,0.08 0.524,0.21 0.757,0.53c0.064,0.33 0.064,0.33 0.071,0.71c0.004,0.14 0.008,0.27 0.012,0.41c0.001,0.14 0.003,0.28 0.005,0.43c0.003,0.14 0.007,0.29 0.01,0.43c0.009,0.36 0.015,0.71 0.019,1.06c0.063,-0.06 0.126,-0.12 0.191,-0.19c0.596,-0.6 1.192,-1.2 1.789,-1.8c0.308,-0.31 0.614,-0.62 0.92,-0.93c0.296,-0.3 0.592,-0.6 0.889,-0.9c0.113,-0.11 0.226,-0.23 0.338,-0.34c0.158,-0.16 0.317,-0.32 0.476,-0.48c0.135,-0.13 0.135,-0.13 0.273,-0.27c0.413,-0.35 0.786,-0.59 1.335,-0.59c0,-1.59 0,-3.17 0,-4.81c-3.909,0.57 -3.909,0.57 -6.965,2.91c-0.234,0.37 -0.335,0.73 -0.418,1.16c-0.068,0.34 -0.116,0.5 -0.322,0.8c-0.337,0.22 -0.562,0.28 -0.967,0.29c-0.408,-0.18 -0.556,-0.28 -0.729,-0.7c-0.033,-0.13 -0.065,-0.26 -0.099,-0.39c-0.347,-1.24 -1.022,-1.97 -2.105,-2.65c-1.783,-0.96 -3.737,-1.29 -5.739,-1.42c-0.106,0 -0.212,-0.01 -0.322,-0.02c-2.596,-0.08 -5.442,0.54 -7.529,2.13c-0.558,0.53 -0.953,1.02 -1.107,1.78c-0.019,0.1 -0.038,0.19 -0.058,0.29c-0.015,0.09 -0.031,0.17 -0.047,0.27c-0.091,0.28 -0.194,0.4 -0.429,0.59c-0.506,0.14 -0.826,0.14 -1.289,-0.12c-0.284,-0.42 -0.275,-0.74 -0.271,-1.23c0.001,-0.09 0.001,-0.18 0.002,-0.27c0.089,-4.24 2.164,-8.18 4.956,-11.27c0.059,-0.07 0.118,-0.13 0.178,-0.2c0.682,-0.76 1.37,-1.5 2.166,-2.14c0.129,-0.11 0.258,-0.22 0.387,-0.32c1,-0.83 2.032,-1.57 3.129,-2.26c0.075,-0.05 0.15,-0.1 0.227,-0.14c5.09,-3.18 11.325,-5.14 17.351,-5.02c0,-0.73 0,-1.47 0,-2.22zM25.7021,6.4441c-2.996,3.88 -4.06,9.2 -4.571,13.95c0.409,-0.16 0.774,-0.34 1.15,-0.56c3.636,-2 8.239,-2.11 12.17,-0.99c1.002,0.31 2.047,0.77 2.89,1.4c0.187,0.17 0.187,0.17 0.431,0.15c-0.53,-5.18 -1.771,-11.81 -5.977,-15.36c-2.353,-1.63 -4.426,-0.59 -6.093,1.41zM6.6001,13.5941c-0.45,0.53 -0.873,1.08 -1.289,1.64c-0.075,0.1 -0.149,0.2 -0.226,0.3c-1.515,2.05 -1.515,2.05 -2.235,4.39c0.34,-0.14 0.675,-0.28 1.009,-0.42c3.882,-1.7 8.596,-1.86 12.563,-0.31c0.972,0.41 1.877,0.91 2.717,1.55c0.017,-0.12 0.034,-0.24 0.052,-0.37c0.589,-4.17 1.379,-8.24 3.229,-12.05c0.038,-0.08 0.076,-0.16 0.114,-0.24c0.56,-1.14 1.241,-2.15 1.996,-3.16c0.077,-0.12 0.154,-0.23 0.234,-0.35c-6.383,-0.29 -13.99,4.44 -18.164,9.02zM34.1391,4.5741c0.044,0.05 0.087,0.11 0.132,0.17c3.534,4.63 4.747,10.33 5.493,16c0.074,-0.05 0.148,-0.1 0.224,-0.15c3.592,-2.36 7.918,-2.93 12.11,-2.08c1.136,0.26 2.189,0.62 3.242,1.12c0.354,0.18 0.354,0.18 0.713,0.29c-0.6,-2.81 -2.777,-5.24 -4.687,-7.27c-0.073,-0.08 -0.145,-0.15 -0.22,-0.23c-0.582,-0.61 -1.234,-1.12 -1.89,-1.64c-0.112,-0.09 -0.224,-0.19 -0.339,-0.28c-1.105,-0.89 -2.298,-1.6 -3.528,-2.3c-0.092,-0.05 -0.184,-0.11 -0.279,-0.16c-2.755,-1.56 -5.773,-2.58 -8.861,-3.23c-0.176,-0.04 -0.176,-0.04 -0.355,-0.08c-0.596,-0.12 -1.146,-0.19 -1.755,-0.16zM27.6871,27.7341c-0.102,0.1 -0.102,0.1 -0.206,0.21c-0.227,0.22 -0.452,0.45 -0.677,0.67c-0.162,0.17 -0.325,0.33 -0.487,0.49c-0.441,0.44 -0.881,0.88 -1.32,1.32c-0.46,0.46 -0.921,0.92 -1.382,1.38c-0.773,0.77 -1.546,1.55 -2.318,2.32c-0.893,0.9 -1.787,1.79 -2.682,2.68c-0.768,0.77 -1.536,1.54 -2.303,2.3c-0.458,0.46 -0.916,0.92 -1.375,1.38c-0.431,0.43 -0.862,0.86 -1.292,1.29c-0.158,0.16 -0.316,0.32 -0.474,0.48c-0.217,0.21 -0.432,0.43 -0.647,0.64c-0.063,0.07 -0.126,0.13 -0.191,0.19c-0.467,0.48 -0.666,0.84 -0.738,1.5c0.069,0.65 0.348,0.98 0.843,1.4c0.45,0.23 0.693,0.26 1.193,0.19c0.579,-0.3 1.004,-0.61 1.465,-1.07c0.059,-0.06 0.119,-0.12 0.18,-0.18c0.197,-0.2 0.393,-0.4 0.588,-0.6c0.142,-0.14 0.284,-0.28 0.425,-0.42c0.384,-0.39 0.766,-0.77 1.149,-1.16c0.4,-0.4 0.802,-0.8 1.203,-1.2c0.759,-0.76 1.518,-1.53 2.276,-2.29c1.36,-1.36 2.721,-2.73 4.082,-4.1c0.478,-0.47 0.956,-0.95 1.433,-1.43c0.296,-0.3 0.592,-0.6 0.889,-0.9c0.137,-0.14 0.275,-0.27 0.413,-0.41c0.187,-0.19 0.374,-0.38 0.562,-0.57c0.157,-0.16 0.157,-0.16 0.318,-0.32c0.282,-0.26 0.414,-0.34 0.794,-0.41c1.057,0.16 1.963,1.5 2.697,2.24c0.136,0.13 0.271,0.27 0.406,0.4c0.29,0.29 0.579,0.58 0.868,0.88c0.458,0.46 0.916,0.92 1.374,1.37c1.303,1.31 2.605,2.62 3.906,3.93c0.72,0.72 1.44,1.44 2.162,2.17c0.455,0.45 0.91,0.91 1.364,1.37c0.283,0.28 0.566,0.57 0.85,0.85c0.131,0.13 0.262,0.26 0.393,0.4c0.178,0.18 0.358,0.36 0.538,0.53c0.15,0.16 0.15,0.16 0.303,0.31c0.384,0.33 0.768,0.58 1.278,0.64c0.673,-0.08 1.012,-0.24 1.483,-0.74c0.298,-0.4 0.277,-0.79 0.234,-1.28c-0.236,-0.58 -0.579,-0.99 -1.017,-1.42c-0.101,-0.1 -0.101,-0.1 -0.204,-0.2c-0.225,-0.23 -0.452,-0.46 -0.678,-0.68c-0.162,-0.16 -0.324,-0.33 -0.485,-0.49c-0.44,-0.44 -0.88,-0.88 -1.32,-1.32c-0.461,-0.46 -0.921,-0.92 -1.381,-1.38c-0.773,-0.77 -1.546,-1.55 -2.32,-2.32c-0.895,-0.89 -1.789,-1.78 -2.682,-2.68c-0.766,-0.77 -1.534,-1.54 -2.302,-2.3c-0.458,-0.46 -0.917,-0.92 -1.375,-1.38c-0.43,-0.43 -0.861,-0.86 -1.293,-1.29c-0.158,-0.16 -0.316,-0.32 -0.474,-0.47c-0.215,-0.22 -0.432,-0.44 -0.648,-0.65c-0.063,-0.06 -0.125,-0.13 -0.189,-0.19c-0.45,-0.44 -0.81,-0.67 -1.437,-0.73c-0.765,0.08 -1.252,0.52 -1.772,1.05zM16.7951,28.9441c0,2.28 0,4.56 0,6.92c0.271,-0.24 0.542,-0.47 0.821,-0.71c0.206,-0.16 0.412,-0.32 0.618,-0.47c1.377,-1.12 1.377,-1.12 1.986,-2.73c0.067,-1.01 -0.025,-2.01 -0.143,-3.01c-1.083,0 -2.166,0 -3.282,0zM28.8301,33.9241c-0.106,0.08 -0.211,0.17 -0.32,0.27c-0.117,0.1 -0.233,0.2 -0.353,0.3c-0.061,0.05 -0.121,0.11 -0.183,0.16c-1.679,1.44 -3.311,2.94 -4.924,4.46c-0.074,0.07 -0.149,0.14 -0.225,0.21c-4.96,4.53 -4.96,4.53 -6.907,10.73c-0.014,0.73 0.027,1.45 0.094,2.17c0.01,0.12 0.021,0.24 0.032,0.36c0.142,1.46 0.421,2.82 0.751,4.25c2.359,0 4.718,0 7.149,0c0.006,-0.72 0.011,-1.44 0.017,-2.19c0.004,-0.46 0.009,-0.92 0.013,-1.37c0.007,-0.73 0.014,-1.46 0.019,-2.18c0.005,-0.59 0.01,-1.18 0.016,-1.76c0.002,-0.23 0.004,-0.45 0.006,-0.67c0.002,-0.32 0.005,-0.63 0.009,-0.94c0,-0.09 0,-0.19 0,-0.28c0.007,-0.45 0.018,-0.66 0.271,-1.04c0.428,-0.14 0.821,-0.13 1.267,-0.13c0.139,0 0.139,0 0.281,0c0.308,0 0.616,0 0.924,0c0.214,-0.01 0.428,-0.01 0.641,-0.01c0.449,0 0.897,0 1.345,0c0.575,0 1.15,0 1.724,0c0.442,0 0.884,0 1.325,0c0.212,0 0.424,0 0.636,0c0.296,0 0.592,0 0.889,0c0.087,0 0.175,0 0.265,-0.01c0.432,0.01 0.774,0.01 1.133,0.27c0.186,0.37 0.138,0.78 0.141,1.19c0.002,0.09 0.003,0.19 0.004,0.29c0.004,0.33 0.006,0.66 0.009,0.98c0.003,0.23 0.005,0.45 0.008,0.68c0.006,0.59 0.012,1.19 0.018,1.78c0.007,0.71 0.014,1.43 0.022,2.14c0.011,1.08 0.022,2.17 0.032,3.25c2.359,0 4.718,0 7.149,0c0.358,-1.56 0.64,-3.03 0.784,-4.61c0.016,-0.17 0.016,-0.17 0.032,-0.35c0.25,-3.13 -0.401,-5.61 -2.409,-8c-1.448,-1.69 -3.042,-3.24 -4.662,-4.76c-0.075,-0.07 -0.149,-0.14 -0.226,-0.22c-1.596,-1.5 -3.218,-2.97 -4.88,-4.4c-0.117,-0.1 -0.233,-0.2 -0.353,-0.3c-0.106,-0.09 -0.212,-0.18 -0.321,-0.27c-0.092,-0.08 -0.184,-0.16 -0.279,-0.24c-0.432,-0.32 -0.6,-0.07 -0.964,0.24zM25.9361,48.1641c0,2.86 0,5.72 0,8.67c2.32,0 4.641,0 7.031,0c0,-2.86 0,-5.72 0,-8.67c-2.32,0 -4.64,0 -7.031,0z" fill="currentColor"/></svg>