<svg viewBox="0 0 60 60" fill="none" xmlns="http://www.w3.org/2000/svg" xmlns:xlink="http://www.w3.org/1999/xlink" x="0" y="0"><defs><clipPath id="clip2_5689_53960">
<rect width="60" height="60" fill="white" transform="translate(0, 0)"/>
</clipPath></defs><g id="Component 82" clip-path="url(#clip2_5689_53960)">
<path id="Vector_13" d="M25.803,-0.06c0.396,0 0.791,0 1.186,0c5.408,-0.01 10.966,1.95 15.198,5.33c0.105,0.09 0.211,0.17 0.319,0.25c2.72,2.18 4.86,4.7 6.595,7.72c0.047,0.08 0.095,0.17 0.143,0.25c1.91,3.34 3.141,7.42 3.162,11.28c0.001,0.1 0.002,0.2 0.003,0.3c0.002,0.33 0.003,0.65 0.003,0.97c0,0.12 0,0.23 0,0.34c-0.002,1.58 -0.035,3.12 -0.381,4.67c-0.035,0.16 -0.035,0.16 -0.07,0.33c-0.16,0.71 -0.334,1.42 -0.516,2.14c-0.045,0.18 -0.09,0.36 -0.135,0.54c-0.033,0.13 -0.066,0.26 -0.099,0.39c2.454,1.37 4.89,2.47 7.752,2.33c0.628,-0.02 0.628,-0.02 0.885,0.14c0.229,0.35 0.202,0.69 0.199,1.09c0.001,0.13 0.001,0.13 0.002,0.27c0.003,0.29 0.002,0.58 0.001,0.87c0.001,0.21 0.002,0.41 0.002,0.61c0.001,0.43 0.001,0.86 0,1.29c-0.001,0.55 0.001,1.09 0.004,1.63c0.003,0.42 0.002,0.85 0.002,1.27c0,0.2 0,0.4 0.002,0.6c0.022,3.53 -1.064,7.01 -3.224,9.83c-0.082,0.1 -0.164,0.21 -0.248,0.32c-1.861,2.37 -4.279,4.28 -7.135,5.3c-0.694,0.06 -1.191,-0.05 -1.824,-0.34c-0.08,-0.04 -0.16,-0.08 -0.243,-0.12c-1.395,-0.65 -2.634,-1.45 -3.793,-2.47c-0.097,-0.08 -0.194,-0.16 -0.294,-0.25c-2.108,-1.81 -3.879,-4.44 -4.627,-7.13c0,-0.12 0,-0.23 0,-0.35c-0.107,0.05 -0.214,0.11 -0.324,0.17c-6.315,3.29 -13.633,3.81 -20.419,1.7c-4.939,-1.62 -9.529,-4.76 -12.635,-8.95c-0.128,-0.18 -0.258,-0.35 -0.388,-0.52c-0.651,-0.86 -1.204,-1.78 -1.742,-2.72c-0.04,-0.06 -0.08,-0.13 -0.121,-0.2c-2.165,-3.73 -3.135,-7.99 -3.104,-12.27c0.002,-0.42 0,-0.85 -0.003,-1.27c-0.003,-1.72 0.151,-3.33 0.532,-5.01c0.029,-0.13 0.058,-0.26 0.088,-0.4c0.069,-0.3 0.145,-0.59 0.227,-0.89c0.03,-0.1 0.059,-0.21 0.089,-0.31c1.106,-3.81 3.121,-7.27 5.789,-10.19c0.229,-0.25 0.45,-0.51 0.67,-0.77c0.332,-0.38 0.684,-0.71 1.069,-1.04c0.197,-0.16 0.391,-0.33 0.583,-0.5c4.583,-4.09 10.721,-6.28 16.82,-6.23zM10.781,6.8c-0.067,0.05 -0.133,0.11 -0.202,0.16c-1.398,1.16 -2.665,2.39 -3.782,3.82c-0.084,0.11 -0.168,0.21 -0.255,0.32c-4.017,5.17 -5.674,11.72 -4.948,18.18c0.792,6.22 4.025,12.23 8.96,16.16c5.347,4.09 11.91,6.25 18.664,5.38c2.408,-0.34 4.768,-0.96 6.993,-1.95c0.084,-0.04 0.168,-0.08 0.255,-0.12c0.263,-0.11 0.524,-0.24 0.785,-0.36c0.081,-0.04 0.163,-0.07 0.247,-0.11c0.438,-0.2 0.438,-0.2 0.675,-0.6c0.038,-0.43 -0.017,-0.83 -0.078,-1.25c-0.133,-1.01 -0.163,-2.01 -0.162,-3.03c0,-0.18 -0.001,-0.35 -0.001,-0.53c-0.001,-0.37 -0.001,-0.74 -0.001,-1.1c0.001,-0.47 -0.001,-0.95 -0.004,-1.42c-0.001,-0.36 -0.001,-0.72 -0.001,-1.09c0,-0.17 -0.001,-0.35 -0.002,-0.52c-0.001,-0.24 -0.001,-0.48 0.001,-0.72c0,-0.14 0,-0.28 0,-0.42c0.043,-0.33 0.043,-0.33 0.197,-0.56c0.335,-0.22 0.713,-0.15 1.099,-0.13c3.232,0.07 6.328,-1.47 8.925,-3.29c0.351,-0.23 0.55,-0.34 0.978,-0.32c0.108,0.03 0.217,0.07 0.329,0.1c0.156,0.04 0.312,0.08 0.469,0.12c0.113,-0.46 0.225,-0.92 0.336,-1.38c0.032,-0.13 0.064,-0.26 0.096,-0.39c1.496,-6.16 0.434,-12.8 -2.801,-18.25c-0.948,-1.54 -2.06,-3 -3.318,-4.3c-0.12,-0.12 -0.238,-0.25 -0.357,-0.37c-1.567,-1.66 -3.347,-3 -5.324,-4.14c-0.083,-0.05 -0.167,-0.1 -0.253,-0.15c-8.518,-4.87 -19.937,-4.07 -27.52,2.26zM48.01,35.38c-2.202,1.5 -4.799,2.61 -7.459,2.84c-0.113,0.01 -0.227,0.02 -0.344,0.03c-0.277,0.02 -0.555,0.05 -0.832,0.07c-0.009,0.89 -0.015,1.78 -0.019,2.68c-0.001,0.41 -0.004,0.82 -0.008,1.24c-0.047,4.98 0.86,9.04 4.245,12.84c0.07,0.08 0.14,0.15 0.211,0.24c1.14,1.2 2.552,2.04 4.008,2.81c0.109,0.05 0.217,0.11 0.329,0.17c0.09,0.05 0.179,0.09 0.272,0.14c0.073,0.04 0.145,0.07 0.22,0.11c0.975,0.18 2.553,-0.98 3.331,-1.51c0.768,-0.57 1.481,-1.19 2.176,-1.84c0.104,-0.1 0.104,-0.1 0.21,-0.19c2.687,-2.5 4.022,-6.32 4.243,-9.89c0.015,-0.54 0.014,-1.09 0.012,-1.63c0,-0.15 0,-0.29 -0.001,-0.45c0,-0.39 -0.001,-0.78 -0.003,-1.17c-0.001,-0.4 -0.001,-0.8 -0.002,-1.2c-0.001,-0.78 -0.003,-1.57 -0.006,-2.35c-0.068,-0.01 -0.136,-0.01 -0.207,-0.02c-0.316,-0.02 -0.633,-0.05 -0.949,-0.08c-0.108,-0.01 -0.215,-0.02 -0.326,-0.02c-2.542,-0.23 -4.975,-1.37 -7.093,-2.75c-0.81,-0.52 -1.186,-0.66 -2.008,-0.07z" fill="currentColor"/>
<path id="Vector_14" d="M36.575,14.59c0.654,0.54 1.206,1.08 1.328,1.95c0.034,0.94 -0.133,1.64 -0.756,2.37c-0.296,0.3 -0.598,0.6 -0.904,0.9c-0.112,0.11 -0.224,0.22 -0.336,0.33c-0.292,0.29 -0.585,0.58 -0.879,0.87c-0.471,0.46 -0.941,0.92 -1.41,1.38c-0.163,0.16 -0.327,0.32 -0.492,0.48c-0.099,0.1 -0.198,0.2 -0.301,0.3c-0.131,0.13 -0.131,0.13 -0.265,0.26c-0.354,0.4 -0.454,0.61 -0.44,1.14c0.112,0.8 0.341,1.58 0.553,2.35c0.079,0.3 0.157,0.59 0.235,0.88c0.22,0.83 0.442,1.66 0.667,2.49c0.138,0.51 0.274,1.02 0.409,1.53c0.051,0.19 0.103,0.38 0.156,0.57c0.838,3.05 0.838,3.05 0.118,4.41c-0.384,0.57 -0.786,1.14 -1.446,1.4c-0.739,0.07 -1.038,0 -1.64,-0.47c-0.176,-0.28 -0.316,-0.54 -0.452,-0.84c-0.08,-0.17 -0.16,-0.34 -0.241,-0.51c-0.06,-0.13 -0.06,-0.13 -0.122,-0.26c-0.195,-0.41 -0.402,-0.82 -0.609,-1.23c-0.082,-0.16 -0.164,-0.32 -0.245,-0.49c-0.041,-0.08 -0.082,-0.16 -0.124,-0.24c-0.788,-1.58 -1.564,-3.15 -2.309,-4.75c-0.383,0.07 -0.577,0.18 -0.852,0.46c-0.108,0.1 -0.108,0.1 -0.218,0.21c-0.076,0.08 -0.152,0.15 -0.231,0.23c-0.079,0.08 -0.159,0.16 -0.241,0.24c-0.167,0.17 -0.335,0.34 -0.501,0.5c-0.255,0.26 -0.512,0.51 -0.769,0.77c-0.163,0.16 -0.326,0.32 -0.488,0.48c-0.077,0.08 -0.154,0.16 -0.233,0.23c-0.412,0.42 -0.681,0.74 -0.803,1.34c0.021,0.3 0.021,0.3 0.103,0.6c0.161,0.77 0.343,1.68 -0.029,2.41c-0.258,0.36 -0.486,0.66 -0.894,0.85c-0.682,0.12 -1.198,0.11 -1.816,-0.21c-0.554,-0.43 -0.821,-1.04 -1.129,-1.65c-0.705,-1.38 -1.282,-2.06 -2.68,-2.76c-1.807,-0.91 -1.807,-0.91 -2.11,-1.82c-0.063,-0.55 -0.055,-0.95 0.198,-1.44c0.41,-0.48 0.707,-0.79 1.34,-0.89c0.539,-0.04 1.026,0.06 1.552,0.16c0.741,0.17 0.741,0.17 1.437,-0.07c0.743,-0.67 1.459,-1.38 2.169,-2.09c0.22,-0.21 0.442,-0.43 0.663,-0.65c0.14,-0.14 0.28,-0.28 0.42,-0.42c0.066,-0.06 0.132,-0.13 0.201,-0.19c0.379,-0.36 0.379,-0.36 0.458,-0.86c-0.095,-0.02 -0.19,-0.05 -0.288,-0.08c-0.5,-0.18 -0.965,-0.41 -1.44,-0.64c-0.099,-0.05 -0.197,-0.1 -0.299,-0.15c-0.318,-0.15 -0.636,-0.31 -0.954,-0.47c-0.435,-0.21 -0.87,-0.42 -1.305,-0.64c-0.107,-0.05 -0.213,-0.1 -0.322,-0.16c-0.596,-0.29 -1.193,-0.57 -1.796,-0.85c-0.124,-0.06 -0.248,-0.12 -0.376,-0.18c-0.218,-0.1 -0.437,-0.19 -0.657,-0.29c-0.61,-0.28 -0.978,-0.54 -1.352,-1.11c-0.159,-0.46 -0.173,-0.89 -0.007,-1.36c0.835,-0.96 1.65,-1.46 2.932,-1.56c0.6,-0.01 1.149,0.13 1.728,0.28c0.13,0.03 0.26,0.06 0.394,0.09c1.837,0.45 3.664,0.95 5.49,1.45c0.396,0.11 0.792,0.21 1.189,0.32c0.22,0.06 0.439,0.12 0.659,0.18c0.133,0.03 0.266,0.07 0.404,0.1c0.174,0.05 0.174,0.05 0.352,0.1c0.482,0.07 0.863,0.05 1.277,-0.22c0.069,-0.07 0.139,-0.13 0.211,-0.2c0.08,-0.07 0.159,-0.15 0.241,-0.22c0.122,-0.12 0.122,-0.12 0.247,-0.25c0.121,-0.11 0.121,-0.11 0.244,-0.23c0.258,-0.26 0.513,-0.52 0.767,-0.78c0.191,-0.19 0.382,-0.38 0.573,-0.58c0.297,-0.3 0.593,-0.6 0.889,-0.9c0.288,-0.29 0.578,-0.58 0.867,-0.88c0.088,-0.09 0.176,-0.18 0.266,-0.27c1.156,-1.16 2.539,-1.79 4.024,-0.75zM32.608,17.44c-0.194,0.2 -0.389,0.4 -0.584,0.6c-0.302,0.31 -0.604,0.62 -0.905,0.93c-0.293,0.3 -0.588,0.6 -0.884,0.9c-0.133,0.14 -0.133,0.14 -0.268,0.28c-0.718,0.72 -1.425,1.18 -2.463,1.2c-0.533,-0.01 -1.011,-0.11 -1.524,-0.25c-0.091,-0.02 -0.181,-0.05 -0.275,-0.07c-0.195,-0.05 -0.391,-0.1 -0.586,-0.16c-0.309,-0.08 -0.62,-0.16 -0.93,-0.25c-0.77,-0.2 -1.54,-0.41 -2.309,-0.61c-0.652,-0.18 -1.303,-0.35 -1.955,-0.52c-0.304,-0.08 -0.608,-0.17 -0.911,-0.25c-1.561,-0.44 -1.561,-0.44 -3.135,-0.23c-0.307,0.22 -0.38,0.35 -0.528,0.68c1.293,0.65 2.589,1.3 3.897,1.92c0.337,0.16 0.674,0.32 1.011,0.48c0.258,0.12 0.517,0.25 0.775,0.37c0.422,0.2 0.841,0.41 1.261,0.61c0.132,0.06 0.263,0.13 0.399,0.19c0.123,0.06 0.245,0.12 0.372,0.18c0.108,0.06 0.217,0.11 0.329,0.16c0.447,0.3 0.596,0.65 0.731,1.16c0.026,0.77 -0.235,1.3 -0.742,1.85c-0.166,0.17 -0.333,0.33 -0.502,0.5c-0.089,0.09 -0.178,0.18 -0.269,0.27c-0.188,0.19 -0.376,0.37 -0.565,0.56c-0.288,0.28 -0.573,0.57 -0.858,0.85c-0.183,0.18 -0.366,0.36 -0.549,0.55c-0.085,0.08 -0.17,0.17 -0.258,0.25c-0.534,0.52 -1.001,0.95 -1.773,1.03c-0.13,0 -0.261,0 -0.395,0c-0.142,-0.01 -0.284,-0.01 -0.43,-0.01c-0.656,-0.03 -1.311,-0.08 -1.965,-0.14c-0.058,0.23 -0.058,0.23 -0.117,0.47c0.541,0.33 1.082,0.66 1.642,0.95c0.123,0.07 0.123,0.07 0.248,0.14c0.162,0.08 0.324,0.17 0.487,0.25c1.077,0.59 1.549,1.5 2.098,2.56c0.12,0.23 0.242,0.46 0.364,0.7c0.052,0.1 0.105,0.2 0.159,0.3c0.155,0.29 0.155,0.29 0.51,0.49c0.196,-0.13 0.196,-0.13 0.351,-0.35c-0.009,-0.34 -0.009,-0.34 -0.095,-0.71c-0.085,-0.48 -0.166,-0.95 -0.183,-1.44c-0.003,-0.08 -0.007,-0.17 -0.01,-0.25c0.173,-0.95 0.789,-1.57 1.449,-2.22c0.089,-0.09 0.179,-0.18 0.271,-0.27c0.187,-0.18 0.376,-0.37 0.565,-0.56c0.289,-0.28 0.576,-0.57 0.863,-0.86c0.183,-0.18 0.366,-0.36 0.55,-0.54c0.085,-0.09 0.171,-0.17 0.26,-0.26c0.08,-0.08 0.161,-0.16 0.244,-0.24c0.07,-0.07 0.141,-0.14 0.213,-0.21c0.397,-0.34 0.732,-0.45 1.249,-0.46c0.097,0 0.193,0 0.292,-0.01c0.484,0.09 0.863,0.32 1.151,0.72c0.134,0.24 0.254,0.48 0.371,0.73c0.045,0.09 0.09,0.18 0.137,0.28c0.145,0.29 0.287,0.59 0.43,0.88c0.099,0.21 0.198,0.41 0.298,0.61c0.286,0.59 0.569,1.17 0.851,1.76c0.074,0.15 0.147,0.3 0.22,0.45c0.272,0.57 0.542,1.13 0.809,1.7c0.273,0.58 0.559,1.15 0.846,1.72c0.558,-0.52 0.806,-0.84 0.84,-1.6c-0.005,-0.52 -0.109,-0.97 -0.245,-1.47c-0.036,-0.13 -0.036,-0.13 -0.073,-0.27c-0.052,-0.19 -0.104,-0.39 -0.157,-0.58c-0.084,-0.31 -0.166,-0.62 -0.248,-0.93c-0.233,-0.88 -0.469,-1.76 -0.706,-2.64c-0.145,-0.53 -0.288,-1.07 -0.431,-1.61c-0.054,-0.21 -0.109,-0.41 -0.164,-0.61c-0.767,-2.81 -0.767,-2.81 -0.274,-3.93c0.3,-0.5 0.704,-0.9 1.124,-1.3c0.08,-0.08 0.161,-0.16 0.244,-0.25c0.256,-0.25 0.514,-0.5 0.772,-0.75c0.256,-0.25 0.512,-0.5 0.767,-0.76c0.159,-0.15 0.318,-0.31 0.477,-0.46c0.454,-0.45 0.88,-0.91 1.292,-1.39c0.181,-0.2 0.181,-0.2 0.518,-0.51c0.303,-0.34 0.366,-0.53 0.366,-0.98c-0.22,-0.53 -0.584,-0.86 -1.055,-1.17c-1.157,-0.26 -2.052,1.1 -2.782,1.85z" fill="currentColor"/>
<path id="Vector_15" d="M54.272,40.21c0.337,0.1 0.337,0.1 0.572,0.45c-0.022,0.66 -0.243,1.1 -0.615,1.62c-0.052,0.08 -0.104,0.15 -0.157,0.23c-0.171,0.25 -0.344,0.5 -0.517,0.75c-0.121,0.17 -0.241,0.35 -0.361,0.52c-0.189,0.28 -0.379,0.55 -0.569,0.83c-0.47,0.68 -0.935,1.36 -1.396,2.05c-0.065,0.1 -0.131,0.19 -0.198,0.29c-0.257,0.39 -0.513,0.77 -0.769,1.15c-1.102,1.64 -1.102,1.64 -1.618,2.35c-0.057,0.08 -0.115,0.16 -0.173,0.24c-0.253,0.23 -0.437,0.27 -0.776,0.29c-0.522,-0.36 -0.874,-0.78 -1.252,-1.29c-0.101,-0.13 -0.202,-0.26 -0.303,-0.4c-0.052,-0.07 -0.104,-0.14 -0.157,-0.21c-0.279,-0.37 -0.565,-0.73 -0.851,-1.09c-0.08,-0.1 -0.08,-0.1 -0.161,-0.21c-0.232,-0.29 -0.466,-0.58 -0.708,-0.87c-0.201,-0.27 -0.201,-0.27 -0.252,-0.64c0.051,-0.33 0.051,-0.33 0.176,-0.55c0.361,-0.21 0.638,-0.18 1.047,-0.13c0.296,0.25 0.296,0.25 0.564,0.6c0.049,0.07 0.097,0.13 0.147,0.19c0.103,0.14 0.204,0.27 0.304,0.4c0.16,0.22 0.324,0.42 0.489,0.63c0.819,1.04 0.819,1.04 0.957,1.46c0.312,-0.3 0.569,-0.59 0.806,-0.96c0.065,-0.1 0.131,-0.19 0.199,-0.3c0.108,-0.16 0.108,-0.16 0.218,-0.33c0.166,-0.25 0.331,-0.5 0.496,-0.75c0.046,-0.07 0.093,-0.14 0.14,-0.21c0.677,-1.02 1.358,-2.04 2.041,-3.06c0.154,-0.23 0.308,-0.46 0.461,-0.69c0.219,-0.33 0.438,-0.66 0.658,-0.99c0.066,-0.09 0.132,-0.19 0.2,-0.3c0.062,-0.09 0.124,-0.18 0.188,-0.28c0.081,-0.12 0.081,-0.12 0.163,-0.24c0.308,-0.38 0.506,-0.57 1.007,-0.55z" fill="currentColor"/>
<path id="Vector_16" d="M14.766,10.78c0.329,0.28 0.351,0.46 0.41,0.89c-0.019,0.13 -0.038,0.26 -0.058,0.4c-0.252,0.18 -0.252,0.18 -0.586,0.35c-1.754,1 -2.991,2.1 -3.984,3.87c-0.052,0.09 -0.104,0.18 -0.157,0.28c-0.478,0.95 -0.635,2.09 -0.722,3.15c-0.06,0.45 -0.072,0.53 -0.41,0.79c-0.478,0.05 -0.649,0.03 -1.055,-0.24c-0.04,-0.31 -0.056,-0.59 -0.051,-0.9c0.001,-0.09 0.002,-0.18 0.003,-0.27c0.062,-2.08 0.986,-4.1 2.392,-5.62c0.087,-0.1 0.175,-0.2 0.266,-0.3c0.735,-0.77 1.534,-1.35 2.429,-1.93c0.084,-0.06 0.168,-0.11 0.254,-0.17c0.431,-0.27 0.762,-0.39 1.269,-0.3z" fill="currentColor"/>
</g></svg>