<svg width="135" height="50" viewBox="0 0 135 50" fill="none" xmlns="http://www.w3.org/2000/svg">
<g clip-path="url(#clip0_5539_19743)">
<path fill-rule="evenodd" clip-rule="evenodd" d="M122.355 19.7676C122.355 17.9693 122.253 12.6674 124.466 12.6674C126.417 12.6674 127.729 14.5824 127.729 15.5464V22.8394C127.729 22.9969 126.83 25.3346 124.85 25.3346C122.85 25.3346 122.355 21.9236 122.355 19.7676ZM125.425 5.18162C128.493 5.43745 127.727 7.32465 127.727 12.8583C126.494 12.0334 126.641 11.5143 124.678 11.1009C122.194 10.5781 119.798 12.2466 118.642 14.3284C117.42 16.5252 117.555 18.3142 117.555 20.726C117.555 23.7811 119.958 27.4424 123.504 27.4424C125.823 27.4424 126.461 25.9872 127.727 25.14V27.4424L134.251 26.1003V25.5256C133.053 25.5256 132.332 25.1548 132.332 23.9906V4.60693H125.423V5.18162H125.425Z" fill="black"/>
<path fill-rule="evenodd" clip-rule="evenodd" d="M0.103516 10.5558C0.103516 15.272 5.50558 17.326 9.31706 19.3819C16.2504 23.1192 8.33823 29.9766 2.93246 23.8478C0.296314 20.8594 1.74601 19.1372 0.103516 19.0019V27.4461C1.04526 27.3682 0.674496 27.3015 1.15649 26.7713C2.81752 24.9341 3.59428 27.4461 8.35677 27.4461C14.2649 27.4461 18.1784 21.0467 14.2316 16.3898C13.5605 15.5983 11.6065 14.308 10.6629 13.8167C8.75905 12.8286 3.75186 10.7097 3.75186 8.63897C3.75186 5.84525 5.48704 5.37623 7.97488 5.37623C10.3663 5.37623 12.8875 8.04945 13.4752 10.6226C13.6569 11.416 13.4474 11.4457 14.3076 11.518V4.03405C13.084 4.13601 13.9702 4.35291 13.2064 5.23534C12.5631 5.97872 11.7975 5.30207 10.2254 4.6625C7.34087 3.48903 4.06515 3.86906 1.85168 6.16411C1.81275 6.20489 1.70523 6.32168 1.6663 6.36432L0.672642 7.86592C0.301876 8.62414 0.110931 9.36753 0.105369 10.5058V10.5614L0.103516 10.5558Z" fill="black"/>
<path fill-rule="evenodd" clip-rule="evenodd" d="M106.618 13.242V11.5142H100.285V12.0889C101.403 12.3484 101.071 12.354 101.82 12.8564C101.82 14.4433 102.011 15.2626 102.011 16.8866C102.011 18.3141 102.332 24.8636 101.507 25.785C101.188 26.1428 100.843 26.2447 100.285 26.2892V26.8658H108.155V26.2892C107.209 26.2114 106.62 25.759 106.62 24.7543V15.3498C106.62 15.0328 107.326 14.1689 107.545 13.9724C109.15 12.5245 110.65 12.9787 110.65 16.501V23.4102C110.65 25.0398 110.476 25.9722 109.115 26.2892V26.8658H116.984V26.2892C114.682 26.2373 115.257 23.9849 115.257 21.1078C115.257 17.1183 116.15 11.3752 111.371 10.9784C110.548 10.9099 109.247 11.3103 108.685 11.6569C107.901 12.1445 107.304 12.7804 106.62 13.2383L106.618 13.242Z" fill="black"/>
<path fill-rule="evenodd" clip-rule="evenodd" d="M93.5668 18.4235C93.5668 21.7418 94.3602 24.3724 91.4571 24.3724C90.5339 24.3724 89.2307 22.9375 90.5228 20.9447C91.0678 20.1049 92.5435 18.6978 93.5668 18.4235ZM85.6991 15.3535C85.6991 17.9971 90.3059 18.8035 90.3059 15.5463C90.3059 14.3228 89.3456 14.3895 89.3456 13.4348C89.3456 12.7118 90.5543 12.2836 91.2643 12.2836C93.9802 12.2836 93.5668 14.6379 93.5668 17.2722C92.0689 17.6208 89.974 18.9092 88.6838 19.6822C83.3003 22.9097 85.8326 27.0605 88.0016 27.0605C90.9195 27.0605 91.205 26.3375 93.5668 24.758C94.4918 28.7271 99.2895 26.9103 100.076 25.101C100.22 24.7691 100.508 25.0528 100.055 24.6004C99.525 24.0702 99.6937 24.949 98.941 24.949C97.8028 24.949 98.1735 22.982 98.1735 21.879C98.1772 17.0776 98.9002 13.6869 96.2233 11.9295C94.5159 10.8079 92.1022 10.7653 89.848 11.4419C88.7264 11.7793 87.9163 12.0926 87.1785 12.8026C86.6279 13.3347 85.6991 14.4007 85.6991 15.3517V15.3535Z" fill="black"/>
<path fill-rule="evenodd" clip-rule="evenodd" d="M40.0221 25.7164V24.9489H40.7896V25.7164C40.7896 26.2559 40.7062 26.0723 40.4059 26.2911C40.0815 26.0668 40.0221 26.2633 40.0221 25.7164ZM38.4872 25.7164V24.9489H39.2546V25.7164C39.2546 26.2559 39.1712 26.0723 38.8709 26.2911C38.5483 26.0668 38.4872 26.2633 38.4872 25.7164ZM40.0221 23.2211H40.7896V24.3724H40.0221V23.2211ZM38.4872 23.2211H39.2546V24.3724H38.4872V23.2211ZM40.0221 21.4934C40.6376 21.5063 40.9824 21.4303 40.9824 22.0681V22.6427H40.0221V21.4915V21.4934ZM38.4872 22.0681C38.4872 21.4303 38.832 21.5063 39.4474 21.4934V22.6446H38.4872V22.0699V22.0681ZM40.0221 19.5728H40.7896V20.724H40.0221V19.5728ZM38.4872 19.5728H39.2546V20.724H38.4872V19.5728ZM40.0221 17.845H40.7896V18.9963H40.0221V17.845ZM38.4872 17.845H39.2546V18.9963H38.4872V17.845ZM40.0221 17.2685V15.9245C40.5635 15.9708 40.7896 15.9207 40.7896 16.501V16.6938C40.7896 17.2833 40.5616 17.2129 40.0221 17.2685ZM38.4872 16.6938V16.501C38.4872 15.9207 38.7133 15.9708 39.2546 15.9245V17.2685C38.7133 17.224 38.4872 17.274 38.4872 16.6938ZM40.0221 14.1985H40.7896V15.3498H40.0221V14.1985ZM38.4872 14.1985H39.2546V15.3498H38.4872V14.1985ZM40.0221 13.0473V12.2798H40.7896V13.0473C40.7896 13.5886 40.7062 13.4032 40.4059 13.622C40.0815 13.3977 40.0221 13.5942 40.0221 13.0473ZM38.4872 13.0473V12.2798H39.2546V13.0473C39.2546 13.5886 39.1712 13.4032 38.8709 13.622C38.5483 13.3977 38.4872 13.5942 38.4872 13.0473ZM40.0221 11.8961V10.5539H40.7896V11.3214C40.7896 11.9109 40.5616 11.8405 40.0221 11.8979V11.8961ZM38.4872 11.3195V11.1286C38.4872 10.5483 38.7133 10.5984 39.2546 10.5539V11.8961C38.7133 11.8516 38.4872 11.8998 38.4872 11.3195ZM40.0221 8.82428H40.7896V9.97551H40.0221V8.82428ZM38.4872 8.82428H39.2546V9.97551H38.4872V8.82428ZM40.0221 7.09651H40.7896V8.24774H40.0221V7.09651ZM38.4872 7.09651H39.2546V8.24774H38.4872V7.09651ZM40.0221 5.17779H40.7896V6.32902H40.0221V5.17779ZM38.4872 5.17779H39.2546V6.32902H38.4872V5.17779ZM40.0221 3.45188H40.7896V4.60311H40.0221V3.45188ZM38.4872 3.45188H39.2546V4.60311H38.4872V3.45188ZM38.1034 27.4405H43.2849V2.10785C43.2849 1.34778 41.7202 1.33109 40.9787 1.15127C40.1704 0.954765 39.0285 0.593268 38.1016 0.572876V27.4405H38.1034Z" fill="black"/>
<path fill-rule="evenodd" clip-rule="evenodd" d="M23.3272 12.0908C24.4451 12.0908 25.0031 13.0733 25.283 13.9724C25.3739 14.2672 25.6204 17.0016 25.6297 17.4632H21.0248C21.0248 15.5704 21.631 12.0889 23.3272 12.0889V12.0908ZM16.8018 18.2325V20.344C16.8018 27.3385 24.523 29.6539 28.1027 25.1176C28.4179 24.7209 29.354 23.4863 29.4931 23.0154C29.6099 22.6224 29.8249 22.9616 29.456 22.5909C28.67 21.8048 28.3326 24.6301 25.7465 24.8266C22.6061 25.0639 21.2176 21.2802 21.2176 18.6162H29.6618C29.6618 16.8069 28.9147 14.3172 28.0749 13.2939C23.724 7.97895 16.8036 12.76 16.8036 18.2325H16.8018Z" fill="black"/>
<path fill-rule="evenodd" clip-rule="evenodd" d="M49.8105 16.1211C49.8105 14.5286 50.6095 12.0908 52.1129 12.0908C53.9019 12.0908 54.2244 14.9624 54.2244 16.8886V17.4651H49.8105V16.1229V16.1211ZM45.3965 18.8073V20.1513C45.3965 27.5574 53.8092 30.1138 57.4798 24.1741C58.1694 23.0563 58.3473 22.8894 58.0693 22.6095C57.5446 22.0867 57.5539 22.7485 56.6678 23.7459C54.0965 26.6416 49.8123 23.6717 49.8123 18.6163H58.2565C58.2565 16.2953 57.6596 14.5435 56.6177 13.1549C55.7168 11.9537 53.8592 10.7672 51.8404 11.036C49.3303 11.3697 48.6481 12.1613 47.2633 13.5739C46.2437 14.6158 45.3983 16.8126 45.3983 18.8091L45.3965 18.8073Z" fill="black"/>
<path fill-rule="evenodd" clip-rule="evenodd" d="M31.9616 2.87909C33.0072 2.87909 33.5448 2.57136 34.4568 2.49535V3.07189C33.5522 3.14604 32.781 3.45563 31.7688 3.45563V4.22312C32.7736 4.1397 33.2296 3.83938 34.4568 3.83938C34.2344 4.66804 34.3567 4.33064 33.3705 4.4808C32.9219 4.54939 32.273 4.68102 31.7688 4.79781V5.37249C32.6735 5.29834 33.4447 4.98875 34.4568 4.98875C34.2418 5.78775 34.3605 5.48187 33.4002 5.65798C32.8106 5.76736 32.2767 5.9064 31.7706 5.94718V6.52372C32.8032 6.50148 33.3371 6.13998 34.4587 6.13998C34.2437 6.93898 34.3623 6.6331 33.402 6.80921C32.8125 6.91859 32.2786 7.05577 31.7725 7.09841V7.67495C32.8051 7.65085 33.339 7.29121 34.4606 7.29121C34.2455 8.09021 34.3642 7.78433 33.4039 7.9623C32.8144 8.06982 32.2805 8.20886 31.7744 8.25149V8.82618C32.8069 8.80394 33.3408 8.44244 34.4624 8.44244C34.2622 9.19139 34.3512 8.95224 33.4372 9.14319C32.831 9.26925 32.3472 9.38789 31.7762 9.40087V9.97741C32.8959 9.97741 33.4298 9.61591 34.4643 9.59367C34.2641 10.3426 34.353 10.1035 33.4391 10.2944C32.8329 10.4205 32.349 10.5391 31.7781 10.5521V11.1268C32.8978 11.1268 33.4317 10.7653 34.4661 10.743C34.2659 11.492 34.3549 11.2547 33.441 11.4438C32.8347 11.5717 32.3509 11.6885 31.7799 11.7015V12.278C32.8996 12.278 33.4335 11.9165 34.468 11.8943C34.2418 12.7359 33.0201 12.8267 31.7799 12.8546V13.4292C33.0053 13.4292 33.4632 13.1289 34.468 13.0455C34.277 13.7574 34.0119 13.6943 33.1443 13.8334C31.9653 14.0225 31.8059 13.7036 31.7818 14.7733C32.1488 14.5972 33.9359 14.2412 34.4698 14.1967V14.7733C33.8284 14.7881 33.4892 14.9067 32.8051 15.0291C31.6112 15.2423 31.804 14.8845 31.7818 15.9245C32.1488 15.7484 33.9359 15.3943 34.4698 15.3498V15.9245C31.2349 16.1933 31.7985 16.388 31.7818 17.0757C32.4158 16.7717 34.0064 16.501 34.4698 16.692C34.2566 17.2166 34.062 17.1981 33.0109 17.3445C31.7262 17.5225 31.8077 17.1592 31.7836 18.227C32.0839 18.0824 34.0101 17.6523 34.4717 17.8432C34.2492 18.3938 34.0546 18.3326 33.0109 18.4939C31.9634 18.6552 31.8652 18.416 31.7836 19.3782C32.5789 19.1928 33.9267 18.7701 34.4717 18.9944C34.2492 19.545 34.0546 19.4839 33.0109 19.6451C31.9634 19.8064 31.8652 19.5673 31.7836 20.5294C32.7402 20.307 33.2611 20.1457 34.4717 20.1457V20.5294C31.8374 21.1412 31.8763 20.5702 31.7836 21.6806C32.5882 21.4934 33.4817 21.2969 34.4717 21.2969V21.6806C33.6022 21.8827 32.6531 22.0551 31.7836 22.2553V22.8319C32.7884 22.7485 33.2444 22.4481 34.4717 22.4481V22.8319C33.6022 23.0339 32.6531 23.2064 31.7836 23.4066V23.9831C32.7884 23.8997 33.2444 23.5994 34.4717 23.5994C34.2492 24.428 34.3716 24.0906 33.3853 24.2408C32.9367 24.3094 32.2879 24.441 31.7836 24.5578V25.1343C32.6883 25.0583 33.4595 24.7506 34.4717 24.7506C34.2566 25.5496 34.3753 25.2437 33.415 25.4217C32.8255 25.5311 32.2916 25.6682 31.7855 25.7109V26.2856C32.8181 26.2633 33.352 25.9018 34.4735 25.9018C34.2585 26.7008 34.3771 26.3949 33.4168 26.5729C32.8273 26.6804 32.2934 26.8195 31.7873 26.8621V27.4368H36.9688V4.98134C36.9818 3.16644 37.2339 3.11082 35.2874 1.09756C34.7386 0.530287 34.8424 0.69157 34.4735 -0.00732422C33.7746 0.459841 32.4825 2.11902 31.9783 2.87168L31.9616 2.87909Z" fill="black"/>
<path fill-rule="evenodd" clip-rule="evenodd" d="M64.9714 14.777V11.5143H58.6387V12.0889C60.0087 12.4078 60.3664 12.773 60.3664 14.9679C60.3664 17.2185 60.5147 23.1804 60.1625 25.1269C60.0105 25.9686 59.5804 26.2133 58.6387 26.2911V26.8677H66.8901V26.2911C64.228 26.2318 64.9714 24.708 64.9714 19C64.9714 17.4743 65.4459 15.6854 66.2005 14.853C67.6928 13.2049 68.1674 15.5445 69.9619 15.5445C73.0392 15.5445 72.3274 9.23589 68.1655 11.4457C66.9883 12.0704 66.4303 12.8008 65.711 13.7889L65.2328 14.46C64.9695 14.8048 65.1308 14.5935 64.9732 14.7751L64.9714 14.777Z" fill="black"/>
<path fill-rule="evenodd" clip-rule="evenodd" d="M78.2155 14.7769V11.5142H71.8828V12.0888C73.1323 12.3799 73.6106 12.6116 73.6106 14.1985C73.6106 16.0931 73.8609 24.4539 73.2973 25.5922C73.0155 26.1594 72.5761 26.2299 71.8828 26.2892V26.8657H80.1342V26.2892C77.5018 26.2317 78.2155 24.3872 78.2155 19.189C78.2155 18.1398 78.5084 16.8347 78.7587 16.0857C79.0905 15.0958 79.6893 14.6379 80.5198 14.1985C81.747 14.5266 81.7582 15.5425 83.206 15.5425C86.2908 15.5425 85.6605 9.20058 81.4078 11.4419C79.8191 12.2779 79.376 13.4421 78.2174 14.775L78.2155 14.7769Z" fill="black"/>
<path fill-rule="evenodd" clip-rule="evenodd" d="M31.9287 3.09963L31.9306 3.10334L31.9324 3.09778L31.9287 3.09963Z" fill="black"/>
<path fill-rule="evenodd" clip-rule="evenodd" d="M0.389648 32.1567C12.8233 32.1659 133.53 32.4422 134.459 31.9843C134.125 31.1982 127.789 31.5764 126.725 31.5764C85.1709 31.5764 43.3374 31.7637 1.82451 31.5542C0.537955 31.5468 0.497171 31.2928 0.389648 32.1567Z" fill="black"/>
<path d="M3.37988 37.4048V38.5079C3.37988 38.7211 3.391 38.8786 3.41696 38.9806C3.44106 39.0844 3.48555 39.1697 3.55043 39.2346C3.60605 39.2939 3.67278 39.3347 3.74694 39.3643C3.82109 39.3921 3.91749 39.4088 4.03984 39.4162V39.4867H2.04883V39.4162C2.16933 39.4088 2.26573 39.3921 2.33988 39.3643C2.41403 39.3347 2.47892 39.2939 2.53453 39.2346C2.60127 39.1678 2.64576 39.0825 2.66801 38.9806C2.69025 38.8786 2.70138 38.7211 2.70138 38.506V36.2054C2.70138 35.9904 2.69025 35.8328 2.66801 35.7308C2.64391 35.6289 2.59942 35.5454 2.53453 35.4768C2.47892 35.4157 2.41403 35.373 2.33803 35.3471C2.26387 35.3211 2.16747 35.3026 2.04883 35.297V35.2266H3.55229C3.80255 35.2266 3.96754 35.2266 4.04911 35.2303C4.37168 35.2451 4.6238 35.2896 4.80548 35.3601C5.0131 35.4435 5.17253 35.5677 5.28376 35.7345C5.39685 35.8995 5.45432 36.0923 5.45432 36.3092C5.45432 36.6336 5.33196 36.8932 5.0854 37.0897C5.01125 37.149 4.92783 37.1972 4.83699 37.2343C4.74615 37.2714 4.62565 37.3084 4.47364 37.3418C4.59599 37.3937 4.68868 37.4475 4.74615 37.5031C4.79435 37.5476 4.83699 37.6032 4.87592 37.6681C4.913 37.733 4.97232 37.8498 5.05018 38.0166C5.23556 38.3985 5.3746 38.6766 5.46915 38.8527C5.56369 39.0269 5.64341 39.1548 5.70644 39.2346C5.75834 39.2994 5.8084 39.3439 5.85845 39.368C5.90665 39.394 5.97339 39.4088 6.05867 39.4181V39.4885H5.02979C4.97788 39.3736 4.94451 39.3013 4.92968 39.2698L4.71093 38.773C4.57931 38.4763 4.44769 38.2131 4.31421 37.9869C4.18073 37.7608 4.05838 37.605 3.94715 37.5216C3.89154 37.4808 3.83036 37.4512 3.76548 37.4326C3.70059 37.4141 3.62088 37.4067 3.52819 37.4067H3.37432L3.37988 37.4048ZM3.37988 37.3344H3.49852C3.75806 37.3344 3.94344 37.3196 4.05653 37.2899C4.16776 37.2602 4.27343 37.2009 4.37168 37.1082C4.59228 36.9006 4.70166 36.6411 4.70166 36.3333C4.70166 36.1683 4.67015 36.0145 4.60526 35.8699C4.54223 35.7253 4.45325 35.6066 4.34016 35.5121C4.25118 35.4416 4.14736 35.3916 4.02687 35.3638C3.90451 35.3341 3.73211 35.3211 3.50779 35.3211H3.37802V37.3325L3.37988 37.3344ZM14.0357 37.7867C14.0264 37.8887 14.0227 37.9628 14.0227 38.0073C14.0227 38.189 14.0487 38.367 14.1024 38.5394C14.1543 38.7118 14.2266 38.8545 14.3175 38.9695C14.4102 39.0844 14.527 39.1771 14.6641 39.2438C14.8013 39.3106 14.9459 39.3439 15.0979 39.3439C15.2092 39.3439 15.3167 39.3254 15.4168 39.2883C15.5169 39.2512 15.6003 39.1993 15.6671 39.1326C15.7412 39.0603 15.8061 38.9435 15.8599 38.7841L15.9229 38.8063C15.8691 39.0492 15.7523 39.2327 15.5744 39.3569C15.3964 39.4811 15.161 39.5423 14.8644 39.5423C14.6085 39.5423 14.3898 39.5015 14.2063 39.4218C14.0227 39.3402 13.8689 39.2142 13.7409 39.0473C13.5648 38.8137 13.4758 38.5245 13.4758 38.1816C13.4758 37.7144 13.6427 37.3474 13.9782 37.0804C14.2211 36.8876 14.4992 36.7912 14.8106 36.7912C14.9774 36.7912 15.1295 36.8209 15.2722 36.8802C15.4131 36.9395 15.5317 37.0248 15.63 37.136C15.782 37.3103 15.858 37.5272 15.858 37.7867H14.032H14.0357ZM15.3964 37.6662C15.3816 37.4586 15.3427 37.301 15.2815 37.1879C15.2259 37.0878 15.1499 37.0063 15.0572 36.9488C14.9645 36.8895 14.8644 36.8598 14.7587 36.8598C14.5807 36.8598 14.425 36.9358 14.2915 37.0878C14.1581 37.2398 14.0783 37.4326 14.0542 37.6644H15.3946L15.3964 37.6662ZM26.1839 39.1845L26.2358 39.216C26.1616 39.4348 25.9911 39.5442 25.7223 39.5442C25.5739 39.5442 25.4516 39.5071 25.3533 39.4348C25.2885 39.3866 25.2236 39.3032 25.1531 39.1845C25.0141 39.3087 24.9084 39.3921 24.838 39.4329C24.7026 39.5071 24.5451 39.5442 24.3671 39.5442C24.1372 39.5442 23.9556 39.4885 23.8221 39.3792C23.6886 39.2679 23.6219 39.1196 23.6219 38.9324C23.6219 38.76 23.6775 38.6154 23.7869 38.4986C23.8499 38.4337 23.9203 38.3837 24.0019 38.3447C24.0835 38.3076 24.2003 38.2669 24.3523 38.2279C24.5339 38.1816 24.6674 38.1445 24.7508 38.113C24.838 38.0815 24.9103 38.0444 24.9677 37.9999C25.0345 37.9517 25.079 37.8961 25.1049 37.8312C25.129 37.7682 25.142 37.6792 25.142 37.5643C25.142 37.3214 25.0975 37.1453 25.0067 37.0341C24.9659 36.9822 24.9121 36.9395 24.8472 36.9099C24.7824 36.8783 24.7138 36.8635 24.6433 36.8635C24.5599 36.8635 24.4839 36.8858 24.4172 36.9303C24.3504 36.9729 24.3022 37.0341 24.2689 37.1119L24.191 37.2936C24.1502 37.39 24.076 37.4401 23.9685 37.4401C23.8981 37.4401 23.8388 37.4178 23.7906 37.3696C23.7424 37.3233 23.7183 37.2639 23.7183 37.1916C23.7183 37.086 23.7924 36.9951 23.9426 36.9228C24.0241 36.8839 24.1243 36.8542 24.2429 36.8301C24.3615 36.806 24.4783 36.7931 24.5933 36.7931C24.7212 36.7931 24.8565 36.8098 24.9956 36.8431C25.1346 36.8765 25.2514 36.9173 25.3441 36.971C25.4775 37.047 25.5628 37.1471 25.5962 37.2695C25.6129 37.3325 25.6203 37.4363 25.6203 37.5847V38.7396C25.6203 38.9342 25.6277 39.0677 25.6462 39.1382C25.6833 39.2865 25.7686 39.3588 25.9039 39.3588C25.967 39.3588 26.0189 39.3476 26.0559 39.3235C26.0912 39.3013 26.1357 39.2531 26.1857 39.1845H26.1839ZM25.1476 37.9573C25.0363 38.05 24.914 38.1352 24.7787 38.2038C24.6285 38.2854 24.5247 38.3466 24.4672 38.3874C24.4097 38.43 24.356 38.4801 24.3096 38.5375C24.2132 38.6599 24.165 38.7989 24.165 38.9602C24.165 39.0974 24.2021 39.2105 24.2781 39.3013C24.3541 39.3903 24.4487 39.4348 24.5636 39.4348C24.6637 39.4348 24.7601 39.4033 24.8491 39.3384C24.9381 39.2753 25.0048 39.1901 25.0512 39.0844C25.1142 38.9454 25.1476 38.7433 25.1476 38.4801V37.9573ZM33.5324 35.221L34.4334 35.1061V38.5839L34.4371 38.8212C34.4371 38.962 34.4464 39.0659 34.4612 39.1307C34.4779 39.1975 34.5113 39.2512 34.5576 39.2939C34.6169 39.3495 34.7245 39.394 34.8802 39.4218V39.4848H33.5009V39.4218C33.6251 39.4051 33.7141 39.381 33.7679 39.3514C33.8216 39.3217 33.8643 39.2698 33.8995 39.1993C33.9217 39.1511 33.9366 39.0788 33.9477 38.9824C33.9588 38.886 33.9625 38.747 33.9625 38.5635V36.122C33.9625 35.9106 33.957 35.7623 33.9477 35.6752C33.9384 35.5881 33.9143 35.5176 33.8791 35.4639C33.8439 35.4045 33.8012 35.3638 33.7512 35.3397C33.7011 35.3137 33.6288 35.2989 33.5361 35.2933V35.2229L33.5324 35.221ZM43.1149 36.8376H43.9065V36.9525H43.1149V38.7693C43.1149 38.988 43.152 39.1437 43.2261 39.2364C43.2651 39.2883 43.317 39.3291 43.3818 39.3588C43.4467 39.3884 43.5153 39.4014 43.5895 39.4014C43.6822 39.4014 43.76 39.3829 43.8212 39.3439C43.8824 39.305 43.951 39.2346 44.0251 39.1326L44.0715 39.1697C44.0029 39.2957 43.9083 39.3884 43.7841 39.4478C43.6618 39.5089 43.5061 39.5404 43.3225 39.5404C43.0778 39.5404 42.8999 39.4922 42.7868 39.3958C42.7274 39.3458 42.6885 39.2865 42.6681 39.216C42.6496 39.1474 42.6403 39.0214 42.6403 38.8416V36.9488H42.3066V36.9006C42.4401 36.858 42.5662 36.7745 42.6811 36.6485C42.7497 36.5725 42.8053 36.4946 42.8479 36.4204C42.8887 36.3444 42.9295 36.2462 42.9666 36.1257L42.9981 36.0219H43.1149V36.8339V36.8376ZM51.1383 36.8376H52.3451V36.908C52.2598 36.921 52.1987 36.9377 52.1616 36.9562C52.08 37.0026 52.0392 37.073 52.0392 37.1675C52.0392 37.2491 52.0819 37.3974 52.1672 37.6088L52.6899 38.9361L53.1423 37.8201C53.2535 37.542 53.3091 37.3455 53.3091 37.2306C53.3091 37.1379 53.2832 37.0656 53.2313 37.01C53.1794 36.9562 53.1015 36.9228 53.0014 36.9099V36.8394H53.8949V36.9099C53.8059 36.934 53.7411 36.9618 53.6984 36.9877C53.6558 37.0155 53.615 37.0582 53.5761 37.1156C53.5149 37.2083 53.4203 37.4122 53.2887 37.7311L52.3841 39.9242C52.2765 40.1856 52.1875 40.3561 52.1227 40.4358C52.0114 40.5675 51.8687 40.6323 51.6963 40.6323C51.5851 40.6323 51.4979 40.6101 51.4293 40.5675C51.3626 40.5248 51.3274 40.4692 51.3274 40.4006C51.3274 40.3469 51.3478 40.3042 51.3867 40.2709C51.4256 40.2393 51.4775 40.2227 51.5424 40.2227C51.5962 40.2227 51.6592 40.2375 51.7297 40.2671C51.7982 40.2931 51.8427 40.3098 51.8631 40.3153C51.8817 40.3228 51.9058 40.3246 51.9336 40.3246C52.0633 40.3246 52.1672 40.2264 52.2487 40.028L52.3451 39.7833C52.3859 39.6795 52.4082 39.6016 52.4082 39.546C52.4082 39.4681 52.3692 39.3365 52.2895 39.1474L51.6407 37.605L51.5461 37.3826C51.4905 37.2528 51.4479 37.1564 51.4164 37.1008C51.3848 37.0452 51.3552 37.0044 51.3237 36.9803C51.2718 36.9414 51.2106 36.9173 51.1383 36.9099V36.8394V36.8376ZM70.0919 39.4867V39.4162C70.3013 39.4162 70.4626 39.3569 70.5776 39.2383C70.6424 39.1715 70.6869 39.0863 70.7092 38.9824C70.7333 38.8786 70.7463 38.7211 70.7463 38.5079V36.2054C70.7463 35.9848 70.7333 35.8217 70.7073 35.716C70.6814 35.6103 70.6332 35.525 70.5627 35.4583C70.5034 35.4027 70.4385 35.3638 70.3681 35.3397C70.2976 35.3156 70.2049 35.3007 70.0937 35.2952V35.2247H72.0792V35.2952C71.9661 35.3026 71.8715 35.3174 71.7974 35.3434C71.7251 35.3675 71.662 35.4083 71.6046 35.462C71.5341 35.5306 71.4859 35.6177 71.46 35.7216C71.4359 35.8254 71.4229 35.9867 71.4229 36.2054V38.0055C71.4229 38.2817 71.4303 38.4875 71.4433 38.6247C71.4581 38.76 71.4878 38.8694 71.5286 38.9546C71.6009 39.1048 71.7084 39.2142 71.853 39.2846C71.9957 39.3532 72.1867 39.3884 72.424 39.3884C72.6705 39.3884 72.88 39.3551 73.0487 39.2902C73.2174 39.2234 73.3565 39.1233 73.464 38.9861C73.5363 38.8935 73.5975 38.7859 73.6438 38.6673C73.6883 38.5486 73.7328 38.3929 73.7717 38.1983L73.8496 38.2038L73.8051 39.483H70.0919V39.4867ZM81.2056 36.9062L82.1065 36.7912V38.5857L82.1102 38.823C82.1102 38.9639 82.1177 39.0659 82.1343 39.1307C82.151 39.1956 82.1825 39.2494 82.2307 39.2939C82.2901 39.3495 82.3957 39.394 82.5533 39.4218V39.4848H81.1722V39.4218C81.2983 39.4051 81.3872 39.381 81.441 39.3514C81.4948 39.3217 81.5393 39.2698 81.5726 39.1993C81.5949 39.153 81.6116 39.0807 81.6208 38.9843C81.6301 38.8879 81.6338 38.7489 81.6338 38.5672V37.8016C81.6338 37.5884 81.6282 37.4382 81.619 37.3529C81.6097 37.2658 81.5856 37.1972 81.5504 37.1434C81.5152 37.086 81.4725 37.0433 81.4206 37.0174C81.3706 36.9914 81.3001 36.9766 81.2056 36.9692V36.9062ZM81.8581 35.6678C81.7766 35.6678 81.7098 35.6418 81.6579 35.5899C81.6041 35.538 81.5782 35.4713 81.5782 35.3934C81.5782 35.3174 81.6041 35.2525 81.6598 35.1988C81.7135 35.145 81.7803 35.1191 81.86 35.1191C81.9378 35.1191 82.0046 35.145 82.0602 35.1988C82.1158 35.2507 82.1418 35.3174 82.1418 35.3934C82.1418 35.4731 82.1158 35.538 82.062 35.5899C82.0083 35.6418 81.9415 35.6678 81.8618 35.6678H81.8581ZM90.8752 36.7912C90.9141 36.9377 90.9363 37.0804 90.9475 37.225C91.0772 37.086 91.2255 36.9803 91.3887 36.9043C91.5518 36.8301 91.7224 36.7931 91.8985 36.7931C92.095 36.7931 92.2581 36.8431 92.3879 36.9432C92.4657 37.0025 92.5566 37.1082 92.6585 37.2584C92.8161 37.0989 92.9755 36.9822 93.135 36.9062C93.2944 36.832 93.4687 36.7949 93.6522 36.7949C93.9025 36.7949 94.1045 36.8635 94.2621 36.9988C94.4178 37.1342 94.4975 37.3121 94.4975 37.5327V38.5876L94.5013 38.823C94.5013 38.9639 94.5105 39.0677 94.5254 39.1326C94.542 39.1993 94.5735 39.2531 94.6199 39.2957C94.6792 39.3514 94.7886 39.3958 94.9443 39.4237V39.4867H93.5651V39.4237C93.6893 39.407 93.7783 39.3829 93.832 39.3532C93.8839 39.3235 93.9284 39.2716 93.9636 39.1993C93.9859 39.153 94.0007 39.0807 94.0118 38.9843C94.0211 38.8879 94.0267 38.7489 94.0267 38.569V37.974C94.0267 37.7441 94.0192 37.5772 94.0044 37.4697C93.9896 37.364 93.9618 37.2732 93.921 37.1991C93.8227 37.0211 93.6541 36.934 93.4168 36.934C93.1609 36.934 92.9718 37.0304 92.8569 37.2194C92.7568 37.3826 92.7049 37.6384 92.7049 37.9869V38.5876L92.7086 38.823C92.7086 38.9639 92.716 39.0677 92.7327 39.1345C92.7494 39.1993 92.7809 39.2531 92.8272 39.2976C92.8847 39.3532 92.9941 39.3977 93.1517 39.4255V39.4885H91.7724V39.4255C91.8966 39.4088 91.9856 39.3847 92.0375 39.3551C92.0894 39.3254 92.1339 39.2735 92.171 39.2012C92.1932 39.153 92.2081 39.0807 92.2192 38.9861C92.2285 38.8898 92.234 38.7507 92.234 38.5709V37.9943C92.234 37.7496 92.2266 37.5717 92.2099 37.4604C92.1951 37.3474 92.1654 37.2547 92.1209 37.1842C92.0746 37.1101 92.0116 37.0507 91.9281 37.0081C91.8466 36.9655 91.752 36.9451 91.6501 36.9451C91.5314 36.9451 91.422 36.9729 91.3182 37.0304C91.2144 37.086 91.1328 37.162 91.0735 37.2565C91.0179 37.3418 90.9771 37.4438 90.9549 37.5643C90.9308 37.6848 90.9178 37.8386 90.9178 38.0277V38.5987L90.9215 38.8286C90.9215 38.9695 90.9308 39.0733 90.9456 39.1382C90.9623 39.2049 90.9938 39.2587 91.042 39.3013C91.1013 39.3569 91.2088 39.4014 91.3646 39.4292V39.4922H89.9853V39.4292C90.1095 39.4125 90.1985 39.3884 90.2523 39.3588C90.306 39.3291 90.3487 39.2772 90.3839 39.2068C90.4061 39.1586 90.421 39.0863 90.4321 38.9917C90.4414 38.8953 90.4469 38.7544 90.4469 38.5727V37.8053C90.4469 37.5921 90.4414 37.4419 90.4302 37.3566C90.421 37.2695 90.3969 37.2009 90.3616 37.1453C90.3264 37.0878 90.2838 37.047 90.2337 37.0192C90.1837 36.9933 90.1114 36.9784 90.0187 36.971V36.908L90.8789 36.8005L90.8752 36.7912ZM102.386 36.9062L103.287 36.7912V38.5857L103.29 38.823C103.29 38.9639 103.298 39.0659 103.314 39.1307C103.331 39.1956 103.363 39.2494 103.411 39.2939C103.468 39.3495 103.576 39.394 103.731 39.4218V39.4848H102.352V39.4218C102.478 39.4051 102.567 39.381 102.619 39.3514C102.673 39.3217 102.717 39.2698 102.751 39.1993C102.773 39.153 102.79 39.0807 102.799 38.9843C102.808 38.8879 102.814 38.7489 102.814 38.5672V37.8016C102.814 37.5884 102.808 37.4382 102.797 37.3529C102.788 37.2658 102.764 37.1972 102.729 37.1434C102.693 37.086 102.651 37.0433 102.601 37.0174C102.551 36.9914 102.478 36.9766 102.386 36.9692V36.9062ZM103.036 35.6678C102.955 35.6678 102.888 35.6418 102.836 35.5899C102.782 35.538 102.756 35.4713 102.756 35.3934C102.756 35.3174 102.782 35.2525 102.838 35.1988C102.892 35.145 102.96 35.1191 103.038 35.1191C103.116 35.1191 103.185 35.145 103.238 35.1988C103.292 35.2507 103.32 35.3174 103.32 35.3934C103.32 35.4731 103.294 35.538 103.24 35.5899C103.186 35.6418 103.12 35.6678 103.04 35.6678H103.036ZM111.966 36.8376H112.758V36.9525H111.966V38.7693C111.966 38.988 112.003 39.1437 112.077 39.2364C112.116 39.2883 112.166 39.3291 112.233 39.3588C112.296 39.3884 112.367 39.4014 112.441 39.4014C112.533 39.4014 112.611 39.3829 112.673 39.3439C112.734 39.305 112.802 39.2346 112.876 39.1326L112.923 39.1697C112.856 39.2957 112.76 39.3884 112.635 39.4478C112.513 39.5089 112.357 39.5404 112.174 39.5404C111.929 39.5404 111.751 39.4922 111.638 39.3958C111.579 39.3458 111.54 39.2865 111.519 39.216C111.501 39.1474 111.492 39.0214 111.492 38.8416V36.9488H111.158V36.9006C111.291 36.858 111.417 36.7745 111.531 36.6485C111.599 36.5725 111.655 36.4946 111.697 36.4204C111.738 36.3444 111.779 36.2462 111.816 36.1257L111.848 36.0219H111.962V36.8339L111.966 36.8376ZM120.744 37.7886C120.735 37.8905 120.731 37.9647 120.731 38.0092C120.731 38.1909 120.757 38.3688 120.811 38.5412C120.863 38.7136 120.935 38.8564 121.026 38.9713C121.119 39.0863 121.233 39.1789 121.373 39.2457C121.51 39.3124 121.654 39.3458 121.806 39.3458C121.918 39.3458 122.025 39.3273 122.125 39.2902C122.225 39.2531 122.309 39.2012 122.375 39.1345C122.45 39.0622 122.514 38.9454 122.568 38.7859L122.631 38.8082C122.578 39.051 122.461 39.2346 122.283 39.3588C122.105 39.483 121.869 39.5442 121.573 39.5442C121.317 39.5442 121.098 39.5034 120.915 39.4237C120.731 39.3421 120.575 39.216 120.449 39.0492C120.273 38.8156 120.184 38.5264 120.184 38.1834C120.184 37.7163 120.351 37.3492 120.687 37.0823C120.929 36.8895 121.206 36.7931 121.519 36.7931C121.686 36.7931 121.838 36.8227 121.979 36.882C122.12 36.9414 122.24 37.0266 122.338 37.1379C122.49 37.3121 122.566 37.529 122.566 37.7886H120.74H120.744ZM122.105 37.6681C122.09 37.4604 122.051 37.3029 121.99 37.1898C121.934 37.0897 121.86 37.0081 121.767 36.9506C121.675 36.8913 121.575 36.8617 121.469 36.8617C121.291 36.8617 121.135 36.9377 121.002 37.0897C120.868 37.2417 120.789 37.4345 120.764 37.6662H122.107L122.105 37.6681ZM132.486 39.5886C132.466 39.4885 132.455 39.381 132.455 39.2661C132.301 39.3643 132.156 39.4348 132.021 39.4793C131.884 39.5238 131.739 39.5442 131.583 39.5442C131.266 39.5442 130.998 39.4496 130.773 39.2605C130.631 39.14 130.519 38.9899 130.443 38.8082C130.365 38.6265 130.328 38.4281 130.328 38.2112C130.328 37.9814 130.369 37.77 130.453 37.5772C130.536 37.3826 130.651 37.2213 130.801 37.0915C131.038 36.8932 131.318 36.7931 131.645 36.7931C131.802 36.7931 131.938 36.8153 132.049 36.8617C132.162 36.9061 132.293 36.9896 132.442 37.1101V35.9514C132.442 35.7253 132.405 35.5621 132.329 35.462C132.255 35.3619 132.128 35.3119 131.956 35.3119V35.2414L132.914 35.1191V38.7322C132.914 38.9658 132.952 39.1345 133.028 39.2327C133.102 39.3328 133.226 39.3829 133.4 39.3829V39.4589L132.488 39.5868L132.486 39.5886ZM132.442 38.1427C132.442 37.8535 132.429 37.6384 132.405 37.492C132.381 37.3474 132.334 37.2287 132.271 37.136C132.216 37.0582 132.141 36.9933 132.045 36.9451C131.952 36.8969 131.854 36.8746 131.754 36.8746C131.533 36.8746 131.341 36.9784 131.181 37.1861C131.083 37.3121 131.007 37.4604 130.951 37.6329C130.898 37.8071 130.87 37.9851 130.87 38.1668C130.87 38.3466 130.896 38.5208 130.948 38.6932C130.999 38.8656 131.07 39.0121 131.159 39.1363C131.315 39.3476 131.504 39.4552 131.73 39.4552C131.837 39.4552 131.939 39.4292 132.038 39.3736C132.134 39.3198 132.212 39.2438 132.273 39.1474C132.336 39.0473 132.379 38.925 132.403 38.7785C132.427 38.6321 132.44 38.4189 132.44 38.1427H132.442Z" fill="black"/>
<path d="M47.5216 47.0726V48.0162H49.1585V47.6695C49.1585 47.5101 49.1882 47.397 49.2475 47.3321C49.3068 47.2672 49.3847 47.2338 49.4811 47.2338C49.5775 47.2338 49.6554 47.2672 49.7128 47.3321C49.7703 47.3988 49.8 47.5101 49.8 47.6695V48.6576H46.7745C46.6151 48.6576 46.5039 48.6279 46.4371 48.5686C46.3722 48.5093 46.3389 48.4314 46.3389 48.335C46.3389 48.2386 46.3722 48.1608 46.4371 48.1033C46.5039 48.0458 46.6151 48.0162 46.7745 48.0162H46.8783V45.4987H46.7745C46.6151 45.4987 46.5039 45.469 46.4371 45.4097C46.3722 45.3504 46.3389 45.2743 46.3389 45.1779C46.3389 45.0816 46.3722 45.0037 46.4371 44.9462C46.5039 44.8869 46.6151 44.8572 46.7745 44.8572L49.6646 44.8609V45.8342C49.6646 45.9936 49.635 46.1067 49.5775 46.1716C49.52 46.2383 49.4422 46.2699 49.3458 46.2699C49.2494 46.2699 49.1715 46.2365 49.1122 46.1716C49.0529 46.1049 49.0232 45.9936 49.0232 45.8342V45.5005H47.5216V46.4311H48.087C48.087 46.2717 48.1056 46.1716 48.1463 46.1308C48.2261 46.04 48.3151 45.9955 48.4115 45.9955C48.5079 45.9955 48.5857 46.0289 48.6432 46.0937C48.7006 46.1605 48.7303 46.2717 48.7303 46.4311V47.0744C48.7303 47.2338 48.7118 47.3358 48.6728 47.3784C48.595 47.4674 48.5097 47.5119 48.4133 47.5119C48.3169 47.5119 48.2279 47.4674 48.1482 47.3766C48.1093 47.3358 48.0889 47.2338 48.0889 47.0763H47.5235L47.5216 47.0726ZM52.5214 47.1801L53.5002 48.0162C53.6133 48.0236 53.6986 48.057 53.756 48.1144C53.8117 48.1737 53.8413 48.2497 53.8413 48.3387C53.8413 48.4314 53.808 48.5093 53.7431 48.5686C53.6782 48.6279 53.5688 48.6576 53.4131 48.6576H52.6845C52.5288 48.6576 52.4194 48.6279 52.3545 48.5686C52.2897 48.5093 52.2563 48.4296 52.2563 48.3332C52.2563 48.2572 52.2804 48.1904 52.3267 48.133C52.3749 48.0755 52.438 48.0366 52.5177 48.0143L52.032 47.5991L51.5518 48.0143C51.6482 48.0403 51.7205 48.0792 51.7632 48.1292C51.8058 48.1812 51.8281 48.2497 51.8281 48.3313C51.8281 48.4277 51.7965 48.5074 51.7317 48.5668C51.6668 48.6261 51.5574 48.6557 51.4017 48.6557H50.6768C50.523 48.6557 50.4136 48.6261 50.3468 48.5668C50.282 48.5074 50.2486 48.4296 50.2486 48.3332C50.2486 48.246 50.2783 48.1719 50.3357 48.1126C50.3932 48.0532 50.4803 48.0199 50.599 48.0143L51.55 47.1875L50.6935 46.4552C50.5878 46.446 50.5063 46.4126 50.4525 46.3533C50.3988 46.294 50.3709 46.2198 50.3709 46.1308C50.3709 46.0381 50.4043 45.9603 50.4692 45.9009C50.5341 45.8416 50.6453 45.812 50.7992 45.812H51.3998C51.5537 45.812 51.6631 45.8416 51.7298 45.9009C51.7947 45.9603 51.8281 46.0381 51.8281 46.1308C51.8281 46.2569 51.7706 46.357 51.6538 46.4348L52.0357 46.7611L52.4268 46.4219C52.3101 46.3403 52.2526 46.2476 52.2526 46.1401C52.2526 46.04 52.286 45.9603 52.3508 45.9009C52.4176 45.8416 52.527 45.812 52.6827 45.812H53.2796C53.4353 45.812 53.5447 45.8416 53.6114 45.9009C53.6763 45.9603 53.7097 46.0381 53.7097 46.1345C53.7097 46.2198 53.68 46.2921 53.6226 46.3533C53.5651 46.4126 53.478 46.446 53.3649 46.4552L52.5251 47.1782L52.5214 47.1801ZM55.0945 48.3054V49.3583H55.4801C55.6395 49.3583 55.7508 49.388 55.8175 49.4473C55.8824 49.5066 55.9158 49.5845 55.9158 49.6809C55.9158 49.7773 55.8824 49.8552 55.8175 49.9126C55.7508 49.9701 55.6395 49.9998 55.4801 49.9998H54.3437C54.1843 49.9998 54.0712 49.9701 54.0063 49.9126C53.9414 49.8552 53.9081 49.7773 53.9081 49.6809C53.9081 49.5845 53.9414 49.5066 54.0063 49.4473C54.0731 49.388 54.1843 49.3583 54.3437 49.3583H54.4531V46.4552H54.3437C54.1843 46.4552 54.0712 46.4256 54.0063 46.3663C53.9414 46.3069 53.9081 46.2272 53.9081 46.1327C53.9081 46.0363 53.9414 45.9584 54.0063 45.9009C54.0731 45.8435 54.1843 45.8138 54.3437 45.8138H55.0945V46.0252C55.2447 45.9232 55.3985 45.8472 55.5617 45.799C55.723 45.7489 55.888 45.7248 56.0585 45.7248C56.496 45.7248 56.8705 45.8731 57.1801 46.1716C57.4897 46.4701 57.6454 46.8112 57.6454 47.1968C57.6454 47.6213 57.4619 47.9717 57.0966 48.2479C56.7926 48.4778 56.4478 48.5946 56.0659 48.5946C55.9009 48.5946 55.7378 48.5686 55.5765 48.5223C55.4152 48.4741 55.2558 48.4018 55.0982 48.3054H55.0945ZM57.0021 47.2005C57.0021 47.1115 56.9669 46.9966 56.8946 46.8557C56.8241 46.7166 56.7148 46.5998 56.5665 46.5071C56.4181 46.4145 56.2476 46.3663 56.0474 46.3663C55.7285 46.3663 55.4727 46.4868 55.2855 46.7278C55.1594 46.8927 55.0945 47.0522 55.0945 47.206C55.0945 47.3784 55.1854 47.5453 55.3689 47.7084C55.5506 47.8716 55.7786 47.9531 56.0474 47.9531C56.3199 47.9531 56.5461 47.8734 56.7277 47.7121C56.9094 47.5509 57.0002 47.3803 57.0002 47.2023L57.0021 47.2005ZM60.3223 48.6594V48.5111C60.1629 48.5946 59.9831 48.6576 59.7903 48.6984C59.5956 48.741 59.4195 48.7614 59.2601 48.7614C58.9134 48.7614 58.6335 48.6706 58.4184 48.4889C58.2034 48.3054 58.0959 48.1051 58.0959 47.8845C58.0959 47.6157 58.233 47.3673 58.5074 47.1375C58.7818 46.9076 59.1637 46.7926 59.6494 46.7926C59.8422 46.7926 60.0683 46.813 60.3242 46.8538V46.6981C60.3242 46.5998 60.2834 46.522 60.2 46.4589C60.1184 46.3978 59.959 46.3663 59.7291 46.3663C59.5381 46.3663 59.2916 46.4033 58.9894 46.4793C58.8745 46.5053 58.7873 46.5201 58.7243 46.5201C58.639 46.5201 58.5649 46.4886 58.5056 46.4274C58.4462 46.3644 58.4166 46.2865 58.4166 46.1901C58.4166 46.1364 58.4277 46.09 58.4481 46.0493C58.4703 46.0103 58.4981 45.977 58.5371 45.9529C58.5742 45.9306 58.6539 45.9009 58.7725 45.8676C58.9319 45.8231 59.0932 45.7879 59.2582 45.7619C59.4232 45.736 59.5734 45.723 59.7068 45.723C60.1054 45.723 60.4169 45.8101 60.6375 45.9825C60.8581 46.1549 60.9674 46.3922 60.9674 46.6907V48.0162H61.0768C61.2363 48.0162 61.3493 48.0458 61.4142 48.1051C61.4791 48.1645 61.5125 48.2405 61.5125 48.3369C61.5125 48.4333 61.4791 48.5111 61.4142 48.5686C61.3475 48.6279 61.2363 48.6576 61.0768 48.6576H60.326L60.3223 48.6594ZM60.3223 47.5082C60.0665 47.4582 59.8273 47.4341 59.6104 47.4341C59.3491 47.4341 59.1247 47.4971 58.9375 47.625C58.8207 47.7066 58.7614 47.7881 58.7614 47.8734C58.7614 47.9327 58.7892 47.9828 58.8467 48.0199C58.9505 48.0885 59.0932 48.1237 59.2768 48.1237C59.4325 48.1237 59.6067 48.094 59.8014 48.0329C59.996 47.9735 60.1703 47.8901 60.3223 47.7863V47.5119V47.5082ZM62.9492 45.8157V46.027C63.066 45.9269 63.1958 45.849 63.3348 45.8008C63.4757 45.7508 63.6295 45.7267 63.7945 45.7267C64.1746 45.7267 64.4749 45.8453 64.6955 46.0826C64.8698 46.2717 64.9587 46.5164 64.9587 46.8223V48.0199C65.1182 48.0199 65.2294 48.0495 65.2961 48.1089C65.361 48.1682 65.3944 48.2442 65.3944 48.3406C65.3944 48.437 65.361 48.5148 65.2961 48.5723C65.2294 48.6316 65.1182 48.6613 64.9587 48.6613H64.3173C64.1579 48.6613 64.0448 48.6316 63.9781 48.5723C63.9132 48.513 63.8798 48.4351 63.8798 48.3387C63.8798 48.2423 63.9132 48.1645 63.9781 48.107C64.0448 48.0495 64.1579 48.0199 64.3173 48.0199V46.8038C64.3173 46.6629 64.2802 46.5609 64.2042 46.496C64.106 46.4126 63.9595 46.37 63.763 46.37C63.6147 46.37 63.485 46.3996 63.3737 46.4571C63.2625 46.5164 63.1216 46.6369 62.9492 46.826V48.0199C63.1086 48.0199 63.2087 48.0384 63.2514 48.0792C63.3422 48.1571 63.3867 48.2442 63.3867 48.3406C63.3867 48.437 63.3533 48.5148 63.2884 48.5723C63.2217 48.6316 63.1105 48.6613 62.951 48.6613H62.3096C62.1502 48.6613 62.039 48.6316 61.9722 48.5723C61.9073 48.513 61.874 48.4351 61.874 48.3387C61.874 48.2423 61.9185 48.1552 62.0056 48.0773C62.0501 48.0403 62.152 48.0199 62.3096 48.0199V46.4589C62.1502 46.4589 62.039 46.4293 61.9722 46.37C61.9073 46.3106 61.874 46.2309 61.874 46.1364C61.874 46.04 61.9073 45.9621 61.9722 45.9047C62.039 45.8472 62.152 45.8175 62.3096 45.8175H62.951L62.9492 45.8157ZM68.9222 44.5958V48.018H69.0316C69.191 48.018 69.3041 48.0477 69.369 48.107C69.4339 48.1663 69.4673 48.2423 69.4673 48.3387C69.4673 48.4351 69.4339 48.513 69.369 48.5705C69.3023 48.6298 69.191 48.6594 69.0316 48.6594H68.2808V48.5056C68.1344 48.5909 67.9823 48.6539 67.8211 48.6984C67.6616 48.7429 67.4948 48.7633 67.3242 48.7633C66.8422 48.7633 66.4548 48.6242 66.16 48.3443C65.8653 48.0662 65.7188 47.7177 65.7188 47.3006C65.7188 46.8649 65.8727 46.4942 66.1823 46.1864C66.4919 45.8787 66.8682 45.7248 67.3131 45.7248C67.48 45.7248 67.6431 45.7508 67.8044 45.8027C67.9638 45.8546 68.1232 45.9288 68.2808 46.0326V45.2373H68.1714C68.012 45.2373 67.8989 45.2076 67.834 45.1483C67.7692 45.089 67.7358 45.013 67.7358 44.9147C67.7358 44.8183 67.7692 44.7423 67.834 44.683C67.9008 44.6237 68.012 44.594 68.1714 44.594H68.9222V44.5958ZM68.2808 47.3191C68.2808 47.054 68.1881 46.8297 68.0027 46.6443C67.8174 46.4608 67.5875 46.3681 67.3205 46.3681C67.0536 46.3681 66.8256 46.4608 66.6402 46.6443C66.4548 46.8297 66.3621 47.0503 66.3621 47.3117C66.3621 47.549 66.4455 47.7418 66.6124 47.8938C66.7792 48.0458 67.0165 48.1218 67.3205 48.1218C67.6227 48.1218 67.8581 48.0458 68.0287 47.8938C68.1974 47.7418 68.2827 47.5527 68.2827 47.321L68.2808 47.3191ZM71.538 44.5958V45.2762H70.7742V44.5958H71.538ZM71.627 45.8157V48.018H72.3982C72.5576 48.018 72.6707 48.0477 72.7356 48.107C72.8005 48.1663 72.8338 48.2423 72.8338 48.3387C72.8338 48.4351 72.8005 48.513 72.7356 48.5705C72.6688 48.6298 72.5576 48.6594 72.3982 48.6594H70.2144C70.0549 48.6594 69.9418 48.6298 69.877 48.5705C69.8121 48.5111 69.7787 48.4333 69.7787 48.3369C69.7787 48.2405 69.8121 48.1626 69.877 48.1051C69.9437 48.0477 70.0549 48.018 70.2144 48.018H70.9856V46.4571H70.4665C70.307 46.4571 70.194 46.4274 70.1291 46.3681C70.0642 46.3088 70.0308 46.2291 70.0308 46.1345C70.0308 46.0381 70.0642 45.9603 70.1291 45.9028C70.1958 45.8453 70.307 45.8157 70.4665 45.8157H71.6288H71.627ZM74.5115 45.8157V46.027C74.6283 45.9269 74.7581 45.849 74.8971 45.8008C75.038 45.7508 75.1919 45.7267 75.3569 45.7267C75.7369 45.7267 76.0372 45.8453 76.2578 46.0826C76.434 46.2717 76.5211 46.5164 76.5211 46.8223V48.0199C76.6805 48.0199 76.7936 48.0495 76.8585 48.1089C76.9234 48.1682 76.9567 48.2442 76.9567 48.3406C76.9567 48.437 76.9234 48.5148 76.8585 48.5723C76.7917 48.6316 76.6805 48.6613 76.5211 48.6613H75.8797C75.7202 48.6613 75.6071 48.6316 75.5423 48.5723C75.4774 48.513 75.444 48.4351 75.444 48.3387C75.444 48.2423 75.4774 48.1645 75.5423 48.107C75.609 48.0495 75.7202 48.0199 75.8797 48.0199V46.8038C75.8797 46.6629 75.8426 46.5609 75.7684 46.496C75.6702 46.4126 75.5237 46.37 75.3254 46.37C75.1771 46.37 75.0473 46.3996 74.9361 46.4571C74.8248 46.5164 74.6839 46.6369 74.5134 46.826V48.0199C74.6728 48.0199 74.7729 48.0384 74.8137 48.0792C74.9045 48.1571 74.949 48.2442 74.949 48.3406C74.949 48.437 74.9157 48.5148 74.8508 48.5723C74.7841 48.6316 74.671 48.6613 74.5134 48.6613H73.872C73.7125 48.6613 73.5995 48.6316 73.5346 48.5723C73.4678 48.513 73.4363 48.4351 73.4363 48.3387C73.4363 48.2423 73.4808 48.1552 73.5679 48.0773C73.6124 48.0403 73.7144 48.0199 73.8738 48.0199V46.4589C73.7144 46.4589 73.6013 46.4293 73.5364 46.37C73.4697 46.3106 73.4382 46.2309 73.4382 46.1364C73.4382 46.04 73.4715 45.9621 73.5364 45.9047C73.6032 45.8472 73.7144 45.8175 73.8738 45.8175H74.5152L74.5115 45.8157ZM79.7208 46.0085V45.8157H80.4716C80.631 45.8157 80.7441 45.8453 80.809 45.9047C80.8739 45.964 80.9073 46.04 80.9073 46.1364C80.9073 46.2328 80.8739 46.3106 80.809 46.37C80.7423 46.4274 80.631 46.4589 80.4716 46.4589H80.3622V48.7966C80.3622 49.0228 80.314 49.2193 80.2195 49.388C80.1231 49.5567 79.9785 49.7013 79.782 49.8218C79.5855 49.9442 79.363 50.0035 79.1165 50.0035H78.3898C78.2359 50.0035 78.1247 49.9738 78.0598 49.9145C77.9949 49.8552 77.9615 49.7773 77.9615 49.6846C77.9615 49.5882 77.9949 49.5104 78.0598 49.451C78.1265 49.3917 78.2359 49.362 78.3916 49.362H79.1035C79.3 49.362 79.452 49.3101 79.5595 49.2026C79.667 49.097 79.7208 48.9635 79.7208 48.8022V48.4907C79.5781 48.5816 79.4335 48.6502 79.287 48.6965C79.1387 48.7429 78.9885 48.7651 78.8347 48.7651C78.3972 48.7651 78.032 48.6205 77.7372 48.3276C77.4424 48.0347 77.2941 47.6751 77.2941 47.245C77.2941 46.813 77.4424 46.4515 77.7372 46.1586C78.032 45.8676 78.3972 45.7211 78.8347 45.7211C78.9978 45.7211 79.1535 45.7434 79.3 45.7916C79.4483 45.8379 79.5892 45.9121 79.7227 46.0085H79.7208ZM79.7208 47.2413C79.7208 47.004 79.6337 46.7982 79.4576 46.6239C79.2833 46.4497 79.072 46.3607 78.8273 46.3607C78.5826 46.3607 78.3731 46.4478 78.197 46.6239C78.0227 46.7982 77.9356 47.004 77.9356 47.2413C77.9356 47.4823 78.0227 47.688 78.197 47.8604C78.3731 48.0347 78.5826 48.12 78.8273 48.12C79.072 48.12 79.2833 48.0329 79.4576 47.8604C79.6318 47.688 79.7208 47.4804 79.7208 47.2413ZM86.3501 47.3562V48.018H86.9989C87.1584 48.018 87.2696 48.0477 87.3363 48.107C87.4012 48.1663 87.4346 48.2423 87.4346 48.3387C87.4346 48.4351 87.4012 48.513 87.3363 48.5705C87.2696 48.6298 87.1584 48.6594 86.9989 48.6594H85.6049C85.4454 48.6594 85.3324 48.6298 85.2675 48.5705C85.2026 48.5111 85.1692 48.4333 85.1692 48.3369C85.1692 48.2405 85.2026 48.1626 85.2675 48.1051C85.3342 48.0477 85.4454 48.018 85.6049 48.018H85.7068V45.5005H85.6049C85.4454 45.5005 85.3324 45.4709 85.2675 45.4115C85.2026 45.3522 85.1692 45.2762 85.1692 45.1798C85.1692 45.0834 85.2026 45.0055 85.2675 44.9481C85.3342 44.8888 85.4454 44.8591 85.6049 44.8591H87.0861C87.5199 44.8591 87.8647 44.9777 88.1205 45.215C88.3745 45.4523 88.5024 45.7415 88.5024 46.0808C88.5024 46.2699 88.4598 46.4478 88.3745 46.6147C88.3096 46.7407 88.2002 46.8631 88.0501 46.9854C87.898 47.1078 87.7442 47.2005 87.5848 47.2617C87.4272 47.3228 87.2195 47.3543 86.96 47.3543H86.352L86.3501 47.3562ZM86.3501 46.7148H86.947C87.227 46.7148 87.4494 46.6517 87.6144 46.5238C87.7775 46.3978 87.861 46.2458 87.861 46.0678C87.861 45.9176 87.7942 45.7842 87.6626 45.6711C87.5291 45.558 87.34 45.5005 87.0935 45.5005H86.352V46.7129L86.3501 46.7148ZM92.2471 47.2895C92.2471 47.536 92.1785 47.7752 92.0414 48.0069C91.9042 48.2386 91.7003 48.4222 91.4296 48.5593C91.1589 48.6965 90.8753 48.7651 90.5824 48.7651C90.2895 48.7651 90.0077 48.6984 89.7408 48.563C89.4738 48.4277 89.2699 48.2442 89.129 48.0106C88.9881 47.7789 88.9195 47.536 88.9195 47.2839C88.9195 47.0281 88.99 46.7741 89.1327 46.5257C89.2754 46.2791 89.4794 46.0826 89.7463 45.9399C90.0133 45.7971 90.2913 45.7267 90.5824 45.7267C90.8753 45.7267 91.1552 45.799 91.4277 45.9454C91.6984 46.09 91.9023 46.2865 92.0395 46.5312C92.1786 46.7778 92.2471 47.0299 92.2471 47.2895ZM91.6057 47.2932C91.6057 47.0855 91.5316 46.8965 91.3833 46.7222C91.1793 46.4886 90.9124 46.37 90.5843 46.37C90.2932 46.37 90.0504 46.4627 89.8557 46.648C89.661 46.8353 89.5628 47.0503 89.5628 47.2969C89.5628 47.4971 89.661 47.6843 89.8576 47.8604C90.0541 48.0347 90.2969 48.1237 90.5843 48.1237C90.8716 48.1237 91.1144 48.0347 91.311 47.8604C91.5075 47.6843 91.6057 47.4971 91.6057 47.2932ZM95.1224 46.5665C95.0186 46.5016 94.9092 46.4515 94.7962 46.42C94.6812 46.3866 94.5626 46.3718 94.4384 46.3718C94.19 46.3718 93.9934 46.4126 93.8488 46.4942C93.784 46.5312 93.7524 46.5702 93.7524 46.611C93.7524 46.6592 93.7969 46.7055 93.8822 46.7519C93.949 46.7852 94.0973 46.8186 94.3271 46.8483C94.7517 46.9076 95.0464 46.9669 95.2151 47.0244C95.4339 47.1022 95.6044 47.2172 95.7231 47.3692C95.8417 47.523 95.901 47.6825 95.901 47.853C95.901 48.0829 95.8009 48.2757 95.5989 48.4296C95.3097 48.652 94.9315 48.7651 94.4699 48.7651C94.2845 48.7651 94.1121 48.7484 93.9545 48.7169C93.7969 48.6854 93.6523 48.6391 93.5207 48.5779C93.4892 48.6057 93.4558 48.6261 93.4206 48.6409C93.3854 48.6557 93.3483 48.6632 93.3112 48.6632C93.2111 48.6632 93.1296 48.6298 93.0702 48.5649C93.0109 48.5 92.9813 48.3906 92.9813 48.2349V48.018C92.9813 47.8641 93.0109 47.7548 93.0702 47.688C93.1296 47.6232 93.2074 47.5898 93.3038 47.5898C93.3817 47.5898 93.4466 47.612 93.4985 47.6528C93.5504 47.6955 93.593 47.7678 93.6208 47.8716C93.7191 47.955 93.8359 48.0162 93.9731 48.0607C94.1102 48.1014 94.2697 48.1237 94.4476 48.1237C94.7405 48.1237 94.9704 48.0773 95.1298 47.9847C95.2077 47.9383 95.2448 47.892 95.2448 47.8401C95.2448 47.7548 95.191 47.6862 95.0798 47.6324C94.9686 47.5768 94.7424 47.5323 94.3976 47.4952C93.8841 47.4396 93.5411 47.3358 93.3669 47.1819C93.1945 47.0281 93.1073 46.8408 93.1073 46.6165C93.1073 46.3866 93.2037 46.1957 93.3984 46.0418C93.6616 45.8324 94.0064 45.7285 94.4328 45.7285C94.5811 45.7285 94.7239 45.7434 94.8592 45.773C94.9964 45.8027 95.1261 45.8453 95.2522 45.9065C95.293 45.8768 95.3301 45.8565 95.3634 45.8416C95.3968 45.8268 95.4302 45.8194 95.4598 45.8194C95.547 45.8194 95.6193 45.8527 95.6786 45.9176C95.7379 45.9844 95.7676 46.0919 95.7676 46.2476V46.4033C95.7676 46.5424 95.7509 46.6388 95.7175 46.6888C95.6508 46.7852 95.5581 46.8334 95.4431 46.8334C95.3653 46.8334 95.2967 46.8093 95.2374 46.7611C95.178 46.7129 95.1391 46.648 95.1224 46.5683V46.5665ZM98.9765 46.5665C98.8727 46.5016 98.7634 46.4515 98.6503 46.42C98.5353 46.3866 98.4167 46.3718 98.2925 46.3718C98.0459 46.3718 97.8476 46.4126 97.703 46.4942C97.6381 46.5312 97.6066 46.5702 97.6066 46.611C97.6066 46.6592 97.6511 46.7055 97.7363 46.7519C97.8031 46.7852 97.9514 46.8186 98.1831 46.8483C98.6058 46.9076 98.9024 46.9669 99.0692 47.0244C99.288 47.1022 99.4585 47.2172 99.5772 47.3692C99.6958 47.523 99.7551 47.6825 99.7551 47.853C99.7551 48.0829 99.655 48.2757 99.4511 48.4296C99.1619 48.652 98.7837 48.7651 98.3221 48.7651C98.1349 48.7651 97.9644 48.7484 97.8068 48.7169C97.6492 48.6854 97.5046 48.6391 97.373 48.5779C97.3415 48.6057 97.3081 48.6261 97.2729 48.6409C97.2377 48.6557 97.2006 48.6632 97.1635 48.6632C97.0634 48.6632 96.9818 48.6298 96.9225 48.5649C96.8632 48.5 96.8335 48.3906 96.8335 48.2349V48.018C96.8335 47.8641 96.8632 47.7548 96.9225 47.688C96.9818 47.6232 97.0597 47.5898 97.1561 47.5898C97.2339 47.5898 97.2988 47.612 97.3507 47.6528C97.4026 47.6955 97.4453 47.7678 97.4731 47.8716C97.5695 47.955 97.6881 48.0162 97.8253 48.0607C97.9625 48.1014 98.1219 48.1237 98.2999 48.1237C98.5928 48.1237 98.8208 48.0773 98.9821 47.9847C99.06 47.9383 99.097 47.892 99.097 47.8401C99.097 47.7548 99.0433 47.6862 98.932 47.6324C98.8208 47.5768 98.5947 47.5323 98.2498 47.4952C97.7363 47.4396 97.3934 47.3358 97.2191 47.1819C97.0448 47.0281 96.9596 46.8408 96.9596 46.6165C96.9596 46.3866 97.056 46.1957 97.2506 46.0418C97.5139 45.8324 97.8587 45.7285 98.2851 45.7285C98.4334 45.7285 98.5743 45.7434 98.7114 45.773C98.8486 45.8027 98.9784 45.8453 99.1045 45.9065C99.1434 45.8768 99.1823 45.8565 99.2157 45.8416C99.2491 45.8268 99.2824 45.8194 99.3121 45.8194C99.3992 45.8194 99.4715 45.8527 99.5308 45.9176C99.5902 45.9844 99.6198 46.0919 99.6198 46.2476V46.4033C99.6198 46.5424 99.6031 46.6388 99.5698 46.6888C99.503 46.7852 99.4103 46.8334 99.2954 46.8334C99.2175 46.8334 99.149 46.8093 99.0896 46.7611C99.0303 46.7129 98.9932 46.648 98.9747 46.5683L98.9765 46.5665ZM102.373 44.5977V45.2781H101.609V44.5977H102.373ZM102.462 45.8175V48.0199H103.233C103.392 48.0199 103.504 48.0495 103.57 48.1089C103.635 48.1682 103.669 48.2442 103.669 48.3406C103.669 48.437 103.635 48.5148 103.57 48.5723C103.504 48.6316 103.392 48.6613 103.233 48.6613H101.049C100.89 48.6613 100.777 48.6316 100.712 48.5723C100.647 48.513 100.613 48.4351 100.613 48.3387C100.613 48.2423 100.647 48.1645 100.712 48.107C100.778 48.0495 100.89 48.0199 101.049 48.0199H101.82V46.4589H101.299C101.14 46.4589 101.029 46.4293 100.962 46.37C100.897 46.3106 100.864 46.2309 100.864 46.1364C100.864 46.04 100.897 45.9621 100.962 45.9047C101.029 45.8472 101.14 45.8175 101.299 45.8175H102.462ZM105.185 44.5977V46.0344C105.341 45.9306 105.5 45.8565 105.663 45.8045C105.826 45.7526 105.988 45.7267 106.153 45.7267C106.598 45.7267 106.976 45.8806 107.284 46.1883C107.593 46.496 107.747 46.8668 107.747 47.3024C107.747 47.7196 107.599 48.0662 107.306 48.3461C107.011 48.6261 106.624 48.7651 106.142 48.7651C105.971 48.7651 105.806 48.7429 105.647 48.6984C105.489 48.6539 105.335 48.5871 105.187 48.5019V48.6613H104.434C104.275 48.6613 104.164 48.6316 104.097 48.5723C104.032 48.513 103.999 48.4351 103.999 48.3387C103.999 48.2423 104.032 48.1645 104.097 48.107C104.164 48.0495 104.275 48.0199 104.434 48.0199H104.544V45.2391H104.434C104.275 45.2391 104.164 45.2095 104.097 45.1483C104.032 45.089 103.999 45.0111 103.999 44.9147C103.999 44.8183 104.032 44.7404 104.097 44.683C104.164 44.6255 104.275 44.5958 104.434 44.5958H105.187L105.185 44.5977ZM107.106 47.321C107.106 47.0559 107.013 46.8316 106.828 46.6462C106.642 46.4627 106.412 46.37 106.145 46.37C105.878 46.37 105.65 46.4627 105.465 46.6462C105.28 46.8316 105.187 47.0522 105.187 47.3136C105.187 47.5509 105.27 47.7437 105.437 47.8957C105.604 48.0477 105.841 48.1237 106.145 48.1237C106.449 48.1237 106.687 48.0477 106.853 47.8957C107.022 47.7437 107.106 47.5546 107.106 47.3228V47.321ZM110.079 44.5977V45.2781H109.315V44.5977H110.079ZM110.168 45.8175V48.0199H110.939C111.099 48.0199 111.212 48.0495 111.277 48.1089C111.342 48.1682 111.375 48.2442 111.375 48.3406C111.375 48.437 111.342 48.5148 111.277 48.5723C111.21 48.6316 111.099 48.6613 110.939 48.6613H108.756C108.596 48.6613 108.483 48.6316 108.418 48.5723C108.353 48.513 108.32 48.4351 108.32 48.3387C108.32 48.2423 108.353 48.1645 108.418 48.107C108.485 48.0495 108.596 48.0199 108.756 48.0199H109.527V46.4589H109.006C108.846 46.4589 108.735 46.4293 108.668 46.37C108.603 46.3106 108.568 46.2309 108.568 46.1364C108.568 46.04 108.602 45.9621 108.668 45.9047C108.735 45.8472 108.846 45.8175 109.006 45.8175H110.168ZM114.022 44.5977V48.0199H114.793C114.953 48.0199 115.066 48.0495 115.131 48.1089C115.196 48.1682 115.229 48.2442 115.229 48.3406C115.229 48.437 115.196 48.5148 115.131 48.5723C115.064 48.6316 114.953 48.6613 114.793 48.6613H112.61C112.45 48.6613 112.339 48.6316 112.272 48.5723C112.207 48.513 112.174 48.4351 112.174 48.3387C112.174 48.2423 112.207 48.1645 112.272 48.107C112.339 48.0495 112.45 48.0199 112.61 48.0199H113.381V45.2391H112.862C112.702 45.2391 112.589 45.2095 112.524 45.1483C112.458 45.089 112.426 45.0111 112.426 44.9147C112.426 44.8183 112.459 44.7404 112.524 44.683C112.591 44.6255 112.702 44.5958 112.862 44.5958H114.024L114.022 44.5977ZM117.787 44.5977V45.2781H117.024V44.5977H117.787ZM117.876 45.8175V48.0199H118.648C118.807 48.0199 118.92 48.0495 118.985 48.1089C119.05 48.1682 119.083 48.2442 119.083 48.3406C119.083 48.437 119.05 48.5148 118.985 48.5723C118.918 48.6316 118.807 48.6613 118.648 48.6613H116.464C116.304 48.6613 116.191 48.6316 116.126 48.5723C116.061 48.513 116.028 48.4351 116.028 48.3387C116.028 48.2423 116.061 48.1645 116.126 48.107C116.193 48.0495 116.304 48.0199 116.464 48.0199H117.235V46.4589H116.716C116.556 46.4589 116.443 46.4293 116.378 46.37C116.314 46.3106 116.28 46.2309 116.28 46.1364C116.28 46.04 116.314 45.9621 116.378 45.9047C116.445 45.8472 116.556 45.8175 116.716 45.8175H117.878H117.876ZM121.248 46.4589V47.7455C121.248 47.8845 121.276 47.9735 121.334 48.018C121.421 48.0885 121.578 48.1218 121.805 48.1218C122.135 48.1218 122.437 48.0514 122.717 47.9142C122.822 47.8604 122.908 47.8326 122.967 47.8326C123.052 47.8326 123.125 47.8642 123.186 47.9272C123.249 47.9902 123.278 48.0662 123.278 48.1552C123.278 48.2386 123.245 48.3109 123.178 48.3703C123.076 48.4685 122.874 48.5593 122.572 48.6409C122.27 48.7225 122.014 48.7633 121.806 48.7633C121.408 48.7633 121.108 48.678 120.907 48.5056C120.707 48.3332 120.607 48.1218 120.607 47.8716V46.4589H120.375C120.221 46.4589 120.11 46.4293 120.045 46.37C119.98 46.3088 119.947 46.2309 119.947 46.1345C119.947 46.0418 119.98 45.964 120.045 45.9047C120.112 45.8453 120.221 45.8157 120.375 45.8157H120.607V45.2373C120.607 45.0816 120.637 44.9722 120.696 44.9054C120.755 44.8406 120.833 44.8072 120.93 44.8072C121.022 44.8072 121.1 44.8406 121.159 44.9054C121.219 44.9722 121.248 45.0816 121.248 45.2373V45.8157H122.437C122.591 45.8157 122.702 45.8453 122.767 45.9047C122.832 45.964 122.865 46.0418 122.865 46.1382C122.865 46.2328 122.832 46.3088 122.767 46.37C122.7 46.4274 122.591 46.4589 122.437 46.4589H121.248ZM125.494 44.5977V45.2781H124.73V44.5977H125.494ZM125.583 45.8175V48.0199H126.354C126.513 48.0199 126.626 48.0495 126.691 48.1089C126.756 48.1682 126.79 48.2442 126.79 48.3406C126.79 48.437 126.756 48.5148 126.691 48.5723C126.625 48.6316 126.513 48.6613 126.354 48.6613H124.17C124.011 48.6613 123.899 48.6316 123.833 48.5723C123.768 48.513 123.734 48.4351 123.734 48.3387C123.734 48.2423 123.768 48.1645 123.833 48.107C123.899 48.0495 124.011 48.0199 124.17 48.0199H124.941V46.4589H124.422C124.263 46.4589 124.15 46.4293 124.085 46.37C124.02 46.3106 123.987 46.2309 123.987 46.1364C123.987 46.04 124.02 45.9621 124.085 45.9047C124.152 45.8472 124.263 45.8175 124.422 45.8175H125.585H125.583ZM130.727 47.5638H128.087C128.154 47.7307 128.273 47.8642 128.445 47.968C128.616 48.0718 128.845 48.1218 129.138 48.1218C129.378 48.1218 129.695 48.0699 130.089 47.9661C130.253 47.9253 130.366 47.9031 130.429 47.9031C130.514 47.9031 130.586 47.9327 130.644 47.9939C130.703 48.0551 130.733 48.1311 130.733 48.2238C130.733 48.3091 130.701 48.3795 130.638 48.4388C130.555 48.5148 130.351 48.589 130.026 48.6613C129.702 48.7299 129.39 48.7651 129.092 48.7651C128.579 48.7651 128.165 48.6205 127.857 48.3276C127.548 48.0384 127.394 47.6806 127.394 47.2561C127.394 46.8038 127.561 46.4367 127.894 46.1531C128.228 45.8694 128.612 45.7285 129.048 45.7285C129.311 45.7285 129.55 45.7749 129.769 45.8657C129.987 45.9584 130.151 46.0567 130.256 46.1642C130.406 46.3181 130.531 46.509 130.629 46.7389C130.696 46.8965 130.729 47.0818 130.729 47.2913L130.725 47.5638H130.727ZM130.013 46.9206C129.915 46.7352 129.787 46.598 129.628 46.5053C129.468 46.4145 129.279 46.3681 129.061 46.3681C128.844 46.3681 128.655 46.4145 128.495 46.5053C128.336 46.598 128.206 46.7352 128.106 46.9206H130.012H130.013Z" fill="black"/>
<path d="M133.662 46.561C133.558 46.4961 133.448 46.446 133.335 46.4145C133.22 46.3811 133.102 46.3663 132.978 46.3663C132.729 46.3663 132.533 46.4071 132.388 46.4887C132.325 46.5257 132.292 46.5647 132.292 46.6054C132.292 46.6536 132.336 46.7 132.421 46.7463C132.488 46.7797 132.636 46.8131 132.868 46.8427C133.293 46.9021 133.587 46.9614 133.756 47.0189C133.975 47.0967 134.145 47.2117 134.264 47.3637C134.383 47.5175 134.442 47.677 134.442 47.8475C134.442 48.0774 134.342 48.2702 134.14 48.4241C133.851 48.6465 133.472 48.7596 133.011 48.7596C132.826 48.7596 132.653 48.7429 132.496 48.7114C132.338 48.6799 132.193 48.6335 132.062 48.5724C132.03 48.6002 131.997 48.6206 131.962 48.6354C131.926 48.6502 131.889 48.6576 131.85 48.6576C131.75 48.6576 131.669 48.6243 131.609 48.5594C131.55 48.4945 131.519 48.3851 131.519 48.2294V48.0125C131.519 47.8586 131.548 47.7493 131.609 47.6825C131.669 47.6176 131.747 47.5843 131.843 47.5843C131.919 47.5843 131.986 47.6065 132.038 47.6473C132.09 47.6899 132.132 47.7622 132.16 47.8661C132.258 47.9495 132.375 48.0107 132.512 48.0551C132.649 48.0959 132.807 48.1182 132.987 48.1182C133.28 48.1182 133.508 48.0718 133.669 47.9791C133.747 47.9328 133.784 47.8864 133.784 47.8345C133.784 47.7493 133.73 47.6807 133.619 47.6269C133.508 47.5713 133.282 47.5268 132.937 47.4897C132.423 47.4341 132.08 47.3303 131.906 47.1764C131.732 47.0226 131.646 46.8353 131.646 46.611C131.646 46.3811 131.743 46.1902 131.938 46.0363C132.201 45.8268 132.546 45.723 132.972 45.723C133.12 45.723 133.261 45.7379 133.398 45.7675C133.536 45.7972 133.665 45.8398 133.791 45.901C133.83 45.8713 133.869 45.8509 133.903 45.8361C133.936 45.8213 133.969 45.8139 133.997 45.8139C134.086 45.8139 134.158 45.8472 134.216 45.9121C134.275 45.9789 134.305 46.0864 134.305 46.2421V46.3978C134.305 46.5369 134.288 46.6333 134.255 46.6833C134.188 46.7797 134.095 46.8279 133.98 46.8279C133.903 46.8279 133.834 46.8038 133.775 46.7556C133.715 46.7074 133.676 46.6425 133.66 46.5628L133.662 46.561Z" fill="black"/>
<path fill-rule="evenodd" clip-rule="evenodd" d="M0 46.3959H44.1416V47.0503H0V46.3959Z" fill="#FFF212"/>
<path fill-rule="evenodd" clip-rule="evenodd" d="M21.5713 46.3959H44.1417V47.0503H21.5713V46.3959Z" fill="black"/>
</g>
<defs>
<clipPath id="clip0_5539_19743">
<rect width="134.457" height="50" fill="white"/>
</clipPath>
</defs>
</svg>
